<svg id="Capa_1" enable-background="new 0 0 512 512" height="512" viewBox="0 0 512 512" width="512" xmlns="http://www.w3.org/2000/svg"><g><path d="m512 256c0 141.385-114.615 256-256 256s-256-114.615-256-256 114.615-256 256-256 256 114.615 256 256z" fill="#7cd2e3"/><path d="m.069 250h511.862c.046 1.995.069 3.995.069 6 0 141.385-114.615 256-256 256s-256-114.615-256-256c0-2.005.023-4.005.069-6z" fill="#44bfd7"/><path d="m181 82.5v30c0 2.761-2.239 5-5 5h-30c-2.761 0-5-2.239-5-5v-30c0-2.761 2.239-5 5-5h30c2.761 0 5 2.239 5 5zm165-5h-30c-2.761 0-5 2.239-5 5v30c0 2.761 2.239 5 5 5h30c2.761 0 5-2.239 5-5v-30c0-2.761-2.239-5-5-5z" fill="#fff5f5"/><path d="m301 30h-110c-20.678 0-37.5 16.822-37.5 37.5v50c0 20.678 16.822 37.5 37.5 37.5h110c20.678 0 37.5-16.822 37.5-37.5v-50c0-20.678-16.822-37.5-37.5-37.5zm22.5 87.5c0 12.406-10.093 22.5-22.5 22.5h-110c-12.407 0-22.5-10.094-22.5-22.5v-50c0-12.406 10.093-22.5 22.5-22.5h110c12.407 0 22.5 10.094 22.5 22.5z" fill="#533672"/><path d="m452 157.5v200c0 33.137-26.863 60-60 60h-292c-33.137 0-60-26.863-60-60v-200c0-33.137 26.863-60 60-60h292c33.137 0 60 26.863 60 60z" fill="#754ca0"/><path d="m452 157.5v200c0 33.137-26.863 60-60 60h-252c-33.137 0-60-26.863-60-60v-200c0-33.137 26.863-60 60-60h252c33.137 0 60 26.863 60 60z" fill="#865cb2"/><path d="m361 252.5c0 63.513-51.487 115-115 115s-115-51.487-115-115 51.487-115 115-115 115 51.487 115 115z" fill="#754ca0"/><path d="m301 252.5c0 30.376-24.624 55-55 55s-55-24.624-55-55 24.624-55 55-55 55 24.624 55 55z" fill="#644189"/><path d="m246.703 326.642c-2.762 0-5.261-1.119-7.071-2.929s-2.929-4.309-2.929-7.071v-49.845h-49.845c-2.762 0-5.261-1.119-7.071-2.929s-2.929-4.309-2.929-7.071c0-5.523 4.477-10 10-10h49.845v-48.439c0-5.523 4.477-10 10-10 5.524.001 10 4.477 10 10v48.439h48.439c5.524.001 10 4.477 10 10s-4.477 10-10 10h-48.439v49.845c0 5.523-4.477 10-10 10z" fill="#fff5f5"/><path d="m395 380h-15c-8.284 0-15-6.716-15-15v-130c0-8.284 6.716-15 15-15h15c8.284 0 15 6.716 15 15v130c0 8.284-6.716 15-15 15z" fill="#fb5858"/><path d="m410 245c0 4.142-3.358 7.5-7.5 7.5s-7.5-3.358-7.5-7.5 3.358-7.5 7.5-7.5 7.5 3.358 7.5 7.5z" fill="#af2727"/><path d="m412.5 440h-50c-11.046 0-20-8.954-20-20v-120c0-11.046 8.954-20 20-20h50c11.046 0 20 8.954 20 20v120c0 11.046-8.954 20-20 20z" fill="#dce6eb"/><path d="m442.5 470h-110c-11.046 0-20-8.954-20-20v-120c0-11.046 8.954-20 20-20h110c11.046 0 20 8.954 20 20v120c0 11.046-8.954 20-20 20z" fill="#b9c3cd"/><path d="m401.25 421.25c-33.828 0-61.25-27.423-61.25-61.25v-30c0-11.046 8.954-20 20-20h82.5c11.046 0 20 8.954 20 20v30c0 33.827-27.423 61.25-61.25 61.25z" fill="#c8d2dc"/><path d="m425 390c-8.284 0-15-6.716-15-15v-30c0-8.284 6.716-15 15-15 8.284 0 15 6.716 15 15v30c0 8.284-6.716 15-15 15z" fill="#dce6eb"/><path d="m423.5 252.5h-1c-4.143 0-7.5-3.358-7.5-7.5s3.357-7.5 7.5-7.5h1c4.143 0 7.5 3.358 7.5 7.5s-3.357 7.5-7.5 7.5zm37.436-7.5c0-4.142-3.357-7.5-7.5-7.5h-1.871c-4.143 0-7.5 3.358-7.5 7.5s3.357 7.5 7.5 7.5h1.871c4.142 0 7.5-3.358 7.5-7.5zm29.064 0c0-4.142-3.357-7.5-7.5-7.5h-1c-4.143 0-7.5 3.358-7.5 7.5s3.357 7.5 7.5 7.5h1c4.143 0 7.5-3.358 7.5-7.5zm-57.765-25.318c-1.384-3.904-5.67-5.948-9.575-4.564l-.943.334c-3.905 1.384-5.947 5.671-4.564 9.575 1.384 3.904 5.67 5.948 9.575 4.564l.943-.334c3.905-1.384 5.948-5.67 4.564-9.575zm28.216-10c-1.384-3.904-5.67-5.948-9.575-4.564l-1.764.625c-3.905 1.384-5.947 5.671-4.564 9.575 1.384 3.904 5.67 5.948 9.575 4.564l1.764-.625c3.905-1.384 5.948-5.671 4.564-9.575zm27.395-9.71c-1.384-3.904-5.67-5.948-9.575-4.564l-.943.334c-3.905 1.384-5.947 5.671-4.564 9.575 1.384 3.904 5.67 5.948 9.575 4.564l.943-.334c3.905-1.384 5.947-5.67 4.564-9.575zm-10.518 94.309.943.334c3.905 1.384 8.191-.659 9.575-4.564 1.384-3.904-.659-8.191-4.564-9.575l-.943-.334c-3.905-1.384-8.191.659-9.575 4.564s.66 8.191 4.564 9.575zm-28.215-10 1.764.625c3.905 1.384 8.191-.659 9.575-4.564 1.384-3.904-.659-8.191-4.564-9.575l-1.764-.625c-3.905-1.384-8.191.659-9.575 4.564-1.384 3.904.659 8.191 4.564 9.575zm-27.395-9.71.943.334c3.905 1.384 8.191-.659 9.575-4.564s-.659-8.191-4.564-9.575l-.943-.334c-3.905-1.384-8.191.659-9.575 4.564-1.383 3.905.659 8.191 4.564 9.575z" fill="#fff5f5"/><path d="m346 450h-180c-8.284 0-15-6.716-15-15v-50c0-8.284 6.716-15 15-15h180c8.284 0 15 6.716 15 15v50c0 8.284-6.716 15-15 15z" fill="#ffd399"/><path d="m346 450h-151c-8.284 0-15-6.716-15-15v-50c0-8.284 6.716-15 15-15h151c8.284 0 15 6.716 15 15v50c0 8.284-6.716 15-15 15z" fill="#ffe7c0"/><path d="m295 437.5h-70c-2.761 0-5-2.239-5-5v-45c0-2.761 2.239-5 5-5h70c2.761 0 5 2.239 5 5v45c0 2.761-2.239 5-5 5z" fill="#ffd399"/><path d="m245 437.5h-20c-2.761 0-5-2.239-5-5v-45c0-2.761 2.239-5 5-5h20c-2.761 0-5 2.239-5 5v45c0 2.761 2.239 5 5 5zm-55-12.5c0-5.523-4.477-10-10-10-5.523 0-10 4.477-10 10 0 5.523 4.477 10 10 10 5.523 0 10-4.477 10-10zm150 10c-5.523 0-10-4.477-10-10 0-5.523 4.477-10 10-10 5.523 0 10 4.477 10 10 0 5.523-4.477 10-10 10zm-160-35c-5.523 0-10-4.477-10-10 0-5.523 4.477-10 10-10 5.523 0 10 4.477 10 10 0 5.523-4.477 10-10 10zm160 0c-5.523 0-10-4.477-10-10 0-5.523 4.477-10 10-10 5.523 0 10 4.477 10 10 0 5.523-4.477 10-10 10z" fill="#ffc477"/><path d="m240 490h-20c-5.523 0-10-4.477-10-10 0-5.523 4.477-10 10-10h20c5.523 0 10 4.477 10 10 0 5.523-4.477 10-10 10zm-84.393-20.607c-3.905-3.905-10.237-3.905-14.142 0l-14.142 14.142c-3.905 3.905-3.905 10.237 0 14.142 3.905 3.905 10.237 3.905 14.142 0l14.142-14.142c3.905-3.905 3.905-10.236 0-14.142z" fill="#644189"/><path d="m250 490h-9c-5.523 0-10-4.477-10-10 0-5.523 4.477-10 10-10h9c5.523 0 10 4.477 10 10 0 5.523-4.477 10-10 10zm-87.322-27.678c-3.905-3.905-10.237-3.905-14.142 0l-6.364 6.364c-3.905 3.905-3.905 10.237 0 14.142 3.905 3.905 10.237 3.905 14.142 0l6.364-6.364c3.905-3.905 3.905-10.236 0-14.142z" fill="#fb5858"/></g></svg>