<svg id="Capa_1" enable-background="new 0 0 512 512" height="512" viewBox="0 0 512 512" width="512" xmlns="http://www.w3.org/2000/svg"><g><path d="m0 256c0-141.384 114.615-256 255.999-256 141.318 0 256.389 115.402 256 256.72-.222 80.718-37.801 152.65-96.359 199.42-7.445 5.946-17.839 6.476-25.96 1.494-38.908-23.871-84.687-37.634-133.68-37.634-48.992 0-94.771 13.763-133.679 37.632-8.127 4.986-18.526 4.446-25.976-1.505-58.723-46.908-96.345-119.124-96.345-200.127z" fill="#2cb3cd"/><path d="m48.543 251.167c0-114.575 92.881-207.457 207.456-207.457 114.521 0 207.772 93.52 207.457 208.04-.18 65.412-30.633 123.705-78.087 161.606-6.033 4.818-14.456 5.248-21.037 1.21-31.531-19.344-68.629-30.497-108.332-30.497-39.702 0-76.8 11.153-108.331 30.497-6.586 4.04-15.013 3.603-21.05-1.219-47.588-38.015-78.076-96.537-78.076-162.18z" fill="#44bfd7"/><path d="m90 300c0-38.66 31.34-70 70-70h192c38.66 0 70 31.34 70 70 0 38.66-31.34 70-70 70h-192c-38.66 0-70-31.34-70-70z" fill="#533672"/><path d="m402 146v48c0 80.633-65.366 146-146 146-80.633 0-146-65.366-146-146v-48c0-80.634 65.366-146 146-146 80.634 0 146 65.366 146 146z" fill="#eac23f"/><path d="m402 146v48c0 73.242-53.932 133.888-124.25 144.39-70.318-10.502-124.25-71.148-124.25-144.39v-48c0-73.243 53.932-133.888 124.25-144.39 70.318 10.502 124.25 71.147 124.25 144.39z" fill="#fff04a"/><path d="m142 469.256c0 7.398-8.021 11.969-14.418 8.253-11.082-6.438-21.636-13.684-31.582-21.657v-65.852c0-38.66 31.34-70 70-70h46c-38.66 0-70 31.34-70 70v65.852l.116.092c-.077 1.342-.116 2.695-.116 4.056z" fill="#eac23f"/><path d="m416 390v65.852c-43.827 35.133-99.459 56.148-160 56.148-47.457 0-91.897-12.913-130-35.417v-86.583c0-38.66 31.34-70 70-70h150c38.66 0 70 31.34 70 70z" fill="#fff04a"/><path d="m366 150v40c0 60.751-49.249 110-110 110-60.751 0-110-49.249-110-110v-40c0-60.751 49.249-110 110-110 60.751 0 110 49.249 110 110z" fill="#ffbeaa"/><path d="m366 150v40c0 50.792-34.425 93.543-81.216 106.195-9.023 2.44-18.545 2.44-27.568 0-46.791-12.652-81.216-55.403-81.216-106.195v-40c0-55.663 41.345-101.669 95-108.985 53.655 7.316 95 53.322 95 108.985z" fill="#ffcdbe"/><path d="m256 32.5c-64.79 0-117.5 52.71-117.5 117.5v40c0 64.79 52.71 117.5 117.5 117.5s117.5-52.71 117.5-117.5v-40c0-64.79-52.71-117.5-117.5-117.5zm102.5 157.5c0 56.519-45.981 102.5-102.5 102.5s-102.5-45.981-102.5-102.5v-40c0-56.519 45.981-102.5 102.5-102.5s102.5 45.981 102.5 102.5z" fill="#c3a01a"/><path d="m295.92 209.144c-5.386 0-10.12-3.446-11.78-8.576-5.685-17.576-16.204-28.068-28.14-28.068s-22.455 10.492-28.141 28.067c-1.66 5.13-6.394 8.576-11.78 8.576-.688 0-1.385-.059-2.069-.175-19.518-3.321-38.619-8.996-56.771-16.865-11.991-5.2-19.739-16.935-19.739-29.896v-32.85c0-15.34 10.492-28.395 25.514-31.747 30.06-6.709 61.345-10.11 92.986-10.11s62.926 3.401 92.986 10.111c15.022 3.353 25.514 16.407 25.514 31.747v32.85c0 12.961-7.748 24.695-19.74 29.896-18.152 7.869-37.253 13.544-56.771 16.865-.684.116-1.38.175-2.069.175.001 0 .001 0 0 0z" fill="#644189"/><path d="m289.3 88.765-24.924 85.534c-2.677-1.183-5.485-1.799-8.376-1.799-11.936 0-22.455 10.492-28.141 28.067-1.66 5.13-6.394 8.576-11.78 8.576-.688 0-1.385-.059-2.069-.175-3.745-.637-7.474-1.361-11.184-2.171l34.648-118.907c6.157-.26 12.334-.391 18.524-.391 11.159.001 22.272.424 33.302 1.266zm20.242 2.027-29.242 100.351c1.446 2.857 2.735 6.007 3.84 9.425 1.66 5.13 6.394 8.576 11.78 8.576.688 0 1.384-.059 2.068-.175 2.961-.504 5.913-1.063 8.853-1.674l32.55-111.705c-9.84-1.95-19.8-3.55-29.849-4.798z" fill="#754ca0"/><path d="m350.62 90.291c-30.012-6.698-61.765-10.291-94.62-10.291s-64.608 3.593-94.62 10.291c-18.321 4.089-31.38 20.296-31.38 39.067v32.85c0 16.007 9.57 30.408 24.256 36.776 18.471 8.009 38.072 13.903 58.497 17.378 1.115.189 2.228.282 3.327.282 8.482 0 16.23-5.469 18.915-13.768 4.453-13.766 12.197-22.876 21.005-22.876s16.552 9.11 21.005 22.876c2.685 8.298 10.434 13.768 18.915 13.768 1.1 0 2.212-.092 3.327-.282 20.425-3.475 40.026-9.37 58.497-17.378 14.686-6.368 24.256-20.769 24.256-36.776v-32.85c0-18.771-13.059-34.978-31.38-39.067zm16.38 71.917c0 9.971-5.975 19.004-15.223 23.014-17.6 7.631-36.12 13.133-55.046 16.353-.27.046-.543.069-.811.069-2.089 0-3.999-1.392-4.643-3.385-6.737-20.825-19.925-33.259-35.277-33.259s-28.54 12.434-35.277 33.259c-.645 1.993-2.554 3.385-4.643 3.385-.269 0-.542-.023-.811-.069-18.926-3.221-37.446-8.723-55.046-16.354-9.248-4.009-15.223-13.042-15.223-23.013v-32.85c0-11.801 8.079-21.846 19.647-24.428 29.526-6.589 60.261-9.93 91.353-9.93s61.827 3.341 91.353 9.931c11.568 2.582 19.647 12.627 19.647 24.427z" fill="#a88ac8"/><path d="m267 327.5h-22c-35.898 0-65-29.101-65-65v-10c0-35.898 29.101-65 65-65h22c35.898 0 65 29.101 65 65v10c0 35.899-29.101 65-65 65z" fill="#b9c3cd"/><path d="m252.5 297.5c0 4.143-3.358 7.5-7.5 7.5-15.099 0-29.197-8.138-36.792-21.238-2.078-3.584-.857-8.173 2.727-10.25s8.172-.856 10.25 2.727c4.921 8.488 14.046 13.761 23.815 13.761 4.142 0 7.5 3.357 7.5 7.5zm-42.404-40c3.9 0 7.193-3.019 7.474-6.97.908-12.806 10.79-23.425 23.496-25.25 4.1-.589 6.947-4.39 6.358-8.49s-4.386-6.945-8.49-6.357c-19.646 2.821-34.923 19.238-36.327 39.037-.292 4.132 2.819 7.719 6.951 8.012.181.012.36.018.538.018zm60.542-47.346c-4.131-.347-7.758 2.708-8.11 6.835s2.708 7.759 6.835 8.11c14.096 1.203 25.137 13.238 25.137 27.4 0 4.143 3.358 7.5 7.5 7.5s7.5-3.357 7.5-7.5c0-21.885-17.07-40.485-38.862-42.345zm30.426 63.358c-3.583-2.078-8.173-.857-10.25 2.727-4.519 7.794-12.538 12.901-21.452 13.662-4.127.352-7.187 3.983-6.835 8.11.333 3.91 3.61 6.862 7.464 6.862.213 0 .429-.009.646-.027 13.787-1.176 26.181-9.058 33.153-21.084 2.079-3.584.858-8.173-2.726-10.25zm-68.501-19.106c-.293 4.132 2.818 7.719 6.95 8.013.181.013.36.019.539.019 3.9 0 7.193-3.019 7.473-6.969.154-2.164 1.824-3.959 3.971-4.268 4.1-.589 6.946-4.391 6.357-8.49s-4.387-6.945-8.491-6.357c-9.084 1.305-16.15 8.897-16.799 18.052zm44.25 14.709c2.077-3.584.856-8.173-2.728-10.25-3.583-2.079-8.173-.858-10.25 2.727-.768 1.325-2.124 2.192-3.628 2.321-4.127.353-7.188 3.983-6.835 8.11.333 3.91 3.611 6.862 7.464 6.862.213 0 .429-.009.646-.027 6.379-.544 12.11-4.186 15.331-9.743z" fill="#909ba6"/><path d="m267 335h-22c-39.977 0-72.5-32.523-72.5-72.5v-10c0-39.977 32.523-72.5 72.5-72.5h22c39.977 0 72.5 32.523 72.5 72.5v10c0 39.977-32.523 72.5-72.5 72.5zm-22-140c-31.706 0-57.5 25.794-57.5 57.5v10c0 31.706 25.794 57.5 57.5 57.5h22c31.706 0 57.5-25.794 57.5-57.5v-10c0-31.706-25.794-57.5-57.5-57.5z" fill="#5f6c75"/><path d="m355.75 427.5v64.338c-4.923 2.085-9.925 4.02-15 5.8v-70.138c0-4.142 3.358-7.5 7.5-7.5s7.5 3.358 7.5 7.5zm-192-7.5c-4.142 0-7.5 3.358-7.5 7.5v64.338c4.923 2.085 9.925 4.02 15 5.8v-70.138c0-4.142-3.358-7.5-7.5-7.5z" fill="#eac23f"/><path d="m344.5 370c0 4.142-3.358 7.5-7.5 7.5h-5v5c0 4.142-3.358 7.5-7.5 7.5s-7.5-3.358-7.5-7.5v-5h-5c-4.142 0-7.5-3.358-7.5-7.5 0-4.142 3.358-7.5 7.5-7.5h5v-5c0-4.142 3.358-7.5 7.5-7.5s7.5 3.358 7.5 7.5v5h5c4.142 0 7.5 3.358 7.5 7.5z" fill="#fffac1"/><path d="m394.5 325h-5v-5c0-4.142-3.358-7.5-7.5-7.5-4.142 0-7.5 3.358-7.5 7.5v5h-5c-4.142 0-7.5 3.358-7.5 7.5s3.358 7.5 7.5 7.5h5v5c0 4.142 3.358 7.5 7.5 7.5 4.142 0 7.5-3.358 7.5-7.5v-5h5c4.142 0 7.5-3.358 7.5-7.5s-3.358-7.5-7.5-7.5z" fill="#fff"/></g></svg>