<svg id="Capa_1" enable-background="new 0 0 512 512" height="512" viewBox="0 0 512 512" width="512" xmlns="http://www.w3.org/2000/svg"><g><path d="m40.223 393.812c-26.105-40.788-40.962-89.468-40.195-141.665 2.053-139.605 116.801-252.386 256.42-252.147 141.179.242 255.552 114.765 255.552 256 0 33.291-6.355 65.097-17.917 94.272-11.035 27.846-38.145 45.978-68.098 45.978h-381.278c-1.811 0-3.508-.912-4.484-2.438z" fill="#44bfd7"/><path d="m438.333 256c0 100.7-81.633 182.333-182.333 182.333s-182.333-81.633-182.333-182.333 81.633-182.333 182.333-182.333 182.333 81.633 182.333 182.333z" fill="#7cd2e3"/><path d="m285.566 260h-234c-6.388 0-11.566-5.178-11.566-11.566v-8.434c0-22.091 17.909-40 40-40h48.566v-80c0-22.091 17.909-40 40-40 22.091 0 40 17.909 40 40v80h48.566c22.091 0 40 17.909 40 40v8.434c-.001 6.388-5.179 11.566-11.566 11.566zm-168.389 160h-45.776c-4.713 0-7.21 5.613-4.023 9.085 7.418 8.08 15.348 15.681 23.74 22.753 10.302 8.682 26.059 1.343 26.059-12.13z" fill="#fb5858"/><path d="m186.899 84.44c-12.869 6.648-21.667 20.076-21.667 35.56v86.194c0 11.905-9.651 21.556-21.556 21.556h-45.485c-11.558 0-21.06 9.13-21.524 20.679v.005c0 6.387 5.178 11.566 11.566 11.566h-36.667c-6.388 0-11.566-5.178-11.566-11.566v-8.434c0-20.98 16.153-38.187 36.7-39.865v-.135h51.865v-80c0-22.091 17.909-40 40-40 6.609 0 12.842 1.603 18.334 4.44z" fill="#f44545"/><path d="m297.131 430h-147.131v-182h147.131z" fill="#fff5f5"/><path d="m40 248h130v182h-101.778c-10.459-11.282-19.914-23.508-28.222-36.536z" fill="#fccfc9"/><path d="m140 50h-30c-5.523 0-10-4.477-10-10v-20c0-5.523 4.477-10 10-10h30c5.523 0 10 4.477 10 10v20c0 5.523-4.477 10-10 10zm160-10v-20c0-5.523-4.477-10-10-10h-30c-5.523 0-10 4.477-10 10v20c0 5.523 4.477 10 10 10h30c5.523 0 10-4.477 10-10z" fill="#533672"/><path d="m280 10v40c0 5.523-4.477 10-10 10h-20v60c0 5.523-4.477 10-10 10-5.523 0-10-4.477-10-10v-60h-21.434v60h-80v-60.103c-4.844-.696-8.566-4.861-8.566-9.897v-40c0-5.523 4.477-10 10-10h140c5.523 0 10 4.477 10 10z" fill="#754ca0"/><path d="m208.566 130h-80c-5.523 0-10-4.477-10-10 0-5.523 4.477-10 10-10h80c5.523 0 10 4.477 10 10 0 5.523-4.478 10-10 10zm-73.566-100c-13.807 0-25 11.193-25 25s11.193 25 25 25 25-11.193 25-25-11.193-25-25-25z" fill="#9773bd"/><path d="m145 55c0 5.523-4.477 10-10 10s-10-4.477-10-10 4.477-10 10-10 10 4.477 10 10z" fill="#644189"/><path d="m210 340v86.477c0 13.284-6.476 25.056-16.443 32.331-30.367-7.613-58.582-20.648-83.557-38.018v-80.79c0-22.091 17.909-40 40-40h20c22.091 0 40 17.909 40 40z" fill="#84b017"/><path d="m495 340v7.925c-36.937 95.971-130.015 164.075-239 164.075-16.14 0-31.932-1.494-47.244-4.35-3.137-.585-5.661-10.451-8.756-11.15-20.022-4.518-60-19.787-60-24.5v-132c0-22.091 17.909-40 40-40 2.854 0 5.627 1.056 7.685 3.033 4.493 4.315 10.594 6.967 17.315 6.967s12.822-2.652 17.315-6.967c2.058-1.977 4.831-3.033 7.685-3.033h225c22.091 0 40 17.909 40 40z" fill="#9bcf1b"/><path d="m400 355c0 13.807-11.193 25-25 25s-25-11.193-25-25 11.193-25 25-25 25 11.193 25 25zm-30 65c0-11.046-8.954-20-20-20s-20 8.954-20 20 8.954 20 20 20 20-8.954 20-20zm-95.858-84.142c-7.81-7.811-20.474-7.811-28.284 0-7.811 7.811-7.811 20.474 0 28.284 7.81 7.811 20.474 7.811 28.284 0 7.811-7.81 7.811-20.474 0-28.284zm165.858 34.142c-5.523 0-10 4.477-10 10s4.477 10 10 10 10-4.477 10-10-4.477-10-10-10zm-157.071 62.929c-3.905 3.905-3.905 10.237 0 14.142s10.237 3.905 14.142 0 3.905-10.237 0-14.142-10.237-3.905-14.142 0zm-102.929-112.929c-5.523 0-10 4.477-10 10s4.477 10 10 10 10-4.477 10-10-4.477-10-10-10zm190 125c-5.523 0-10 4.477-10 10s4.477 10 10 10 10-4.477 10-10-4.477-10-10-10z" fill="#84b017"/><path d="m261.858 335.858c-7.811 7.811-7.811 20.474 0 28.284 1.824 1.824 3.913 3.222 6.142 4.194-7.318 3.191-16.156 1.793-22.142-4.194-7.811-7.811-7.811-20.474 0-28.284 5.987-5.987 14.824-7.385 22.142-4.194-2.229.972-4.318 2.37-6.142 4.194zm104.142 19.142c0-11.009 7.116-20.356 17-23.692-2.512-.848-5.202-1.308-8-1.308-13.807 0-25 11.193-25 25s11.193 25 25 25c2.798 0 5.488-.46 8-1.308-9.884-3.336-17-12.683-17-23.692zm-8 46.664c-2.45-1.071-5.156-1.664-8-1.664-11.046 0-20 8.954-20 20s8.954 20 20 20c2.844 0 5.55-.594 8-1.664-7.063-3.086-12-10.135-12-18.336s4.937-15.25 12-18.336z" fill="#6e9213"/><path d="m390 290c0 11.046-8.954 20-20 20-1.586 0-3.129-.185-4.608-.534-4.531 6.375-11.975 10.534-20.392 10.534-13.807 0-25-11.193-25-25s11.193-25 25-25c4.872 0 9.419 1.394 13.263 3.805 3.297-2.394 7.352-3.805 11.737-3.805 11.046 0 20 8.954 20 20z" fill="#c2eaf2"/><path d="m388.109 281.5c-3.195 6.795-10.103 11.5-18.109 11.5-1.586 0-3.129-.185-4.608-.534-4.531 6.375-11.975 10.534-20.392 10.534-10.823 0-20.039-6.877-23.518-16.5 3.479-9.623 12.695-16.5 23.518-16.5 4.872 0 9.419 1.394 13.263 3.805 3.297-2.394 7.352-3.805 11.737-3.805 8.006 0 14.914 4.705 18.109 11.5zm21.891-146.5c0 13.807-11.193 25-25 25s-25-11.193-25-25 11.193-25 25-25 25 11.193 25 25zm-50 45c-11.046 0-20 8.954-20 20s8.954 20 20 20 20-8.954 20-20-8.954-20-20-20zm20 45c-5.523 0-10 4.477-10 10s4.477 10 10 10 10-4.477 10-10-4.477-10-10-10z" fill="#def4f8"/><path d="m380 200c0 2.122-.331 4.167-.943 6.086-1.919.612-3.964.943-6.086.943-11.046 0-20-8.954-20-20 0-2.122.331-4.167.943-6.086 1.919-.612 3.964-.943 6.086-.943 11.046 0 20 8.954 20 20zm5-90c-3.542 0-6.911.737-9.964 2.065-1.328 3.053-2.065 6.422-2.065 9.964 0 13.807 11.193 25 25 25 3.542 0 6.911-.737 9.964-2.065 1.328-3.053 2.065-6.423 2.065-9.964 0-13.807-11.193-25-25-25zm77.5 92.5h-5v-5c0-4.142-3.358-7.5-7.5-7.5s-7.5 3.358-7.5 7.5v5h-5c-4.142 0-7.5 3.358-7.5 7.5 0 4.142 3.358 7.5 7.5 7.5h5v5c0 4.142 3.358 7.5 7.5 7.5s7.5-3.358 7.5-7.5v-5h5c4.142 0 7.5-3.358 7.5-7.5 0-4.142-3.358-7.5-7.5-7.5zm-125-125h-5v-5c0-4.142-3.358-7.5-7.5-7.5s-7.5 3.358-7.5 7.5v5h-5c-4.142 0-7.5 3.358-7.5 7.5 0 4.142 3.358 7.5 7.5 7.5h5v5c0 4.142 3.358 7.5 7.5 7.5s7.5-3.358 7.5-7.5v-5h5c4.142 0 7.5-3.358 7.5-7.5 0-4.142-3.358-7.5-7.5-7.5z" fill="#fff5f5"/><path d="m245.601 405.955c2.341 13.149 3.576 26.829 3.576 40.875s-1.235 27.725-3.576 40.875c-.85 4.777-4.001 8.854-8.462 10.764-8.955 3.832-18.455 6.925-28.381 9.182-44.76-8.351-85.423-28.348-118.722-56.729-.023-1.36-.035-2.724-.035-4.092 0-14.045 1.235-27.725 3.576-40.875.85-4.778 4.001-8.855 8.462-10.764 20.201-8.645 43.178-13.533 67.55-13.533s47.349 4.888 67.55 13.533c4.461 1.909 7.611 5.986 8.462 10.764z" fill="#fff04a"/><path d="m172.177 392.547c30.376 0 55 19.152 55 42.778s-24.624 42.778-55 42.778-55-19.152-55-42.778 24.624-42.778 55-42.778z" fill="#fff68e"/><path d="m165 412c3.335-5.748 18.036-4.199 27.5.5 8.505 4.223 19.771 14.461 17.5 25-1.072 4.974-5.193 10.178-10.5 11.5-15.898 3.961-39.996-27.527-34.5-37z" fill="#fff5f5"/></g></svg>