<svg id="Capa_1" enable-background="new 0 0 512 512" height="512" viewBox="0 0 512 512" width="512" xmlns="http://www.w3.org/2000/svg"><g><path d="m512 256c0 141.385-114.615 256-256 256-65.467 0-125.195-24.574-170.461-65.002-1.186-1.06 3.628-5.917 2.461-6.998-21.108-19.566-38.682-42.835-52.25-68.5-.923-1.747-8.046.469-8.93-1.302-17.164-34.379-26.82-73.161-26.82-114.198 0-141.385 114.615-256 256-256s256 114.615 256 256z" fill="#754ca0"/><path d="m465 256c0 115.427-93.572 209-209 209s-209-93.573-209-209 93.573-209 209-209 209 93.573 209 209z" fill="#865cb2"/><path d="m215.461 197.385v-75.385c0-52.467 42.533-95 95-95h106.539c52.467 0 95 42.533 95 95v75.385c0 52.467-42.533 95-95 95h-106.539c-52.467 0-95-42.533-95-95z" fill="#c2eaf2"/><path d="m512 122v75.385c0 52.467-42.533 95-95 95h-59.945l-27.736 32.359c-1.228 1.432-3.02 2.257-4.906 2.257-4.293 0-7.393-4.109-6.213-8.237l8.047-28.164c-43.651-8.577-76.579-47.05-76.579-93.215v-75.385c0-52.467 42.533-95 95-95h72.332c52.467 0 95 42.533 95 95z" fill="#def4f8"/><path d="m458.731 142.5v30c0 5.523-4.477 10-10 10s-10-4.477-10-10v-7.5l-27.065 6.766c-.992 3.339-2.323 6.531-3.954 9.538l14.355 23.926 5.303-5.303c3.905-3.905 10.237-3.905 14.142 0s3.905 10.237 0 14.142l-21.213 21.213c-3.905 3.905-10.237 3.905-14.142 0s-3.905-10.237 0-14.142l5.303-5.303-23.926-14.355c-3.007 1.631-6.199 2.962-9.538 3.954l-6.766 27.065h7.5c5.523 0 10 4.477 10 10s-4.477 10-10 10h-30c-5.523 0-10-4.477-10-10s4.477-10 10-10h7.5l-6.766-27.065c-3.339-.992-6.531-2.324-9.538-3.954l-23.926 14.355 5.303 5.303c3.905 3.905 3.905 10.237 0 14.142s-10.237 3.905-14.142 0l-21.213-21.213c-3.905-3.905-3.905-10.237 0-14.142s10.237-3.905 14.142 0l5.303 5.303 14.355-23.926c-1.631-3.007-2.962-6.199-3.954-9.538l-27.063-6.766v7.5c0 5.523-4.477 10-10 10s-10-4.477-10-10v-30c0-5.523 4.477-10 10-10s10 4.477 10 10v7.5l27.065-6.766c.992-3.339 2.324-6.531 3.954-9.538l-14.355-23.926-5.303 5.303c-3.905 3.905-10.237 3.905-14.142 0-3.905-3.905-3.905-10.237 0-14.142l21.213-21.213c3.905-3.905 10.237-3.905 14.142 0s3.905 10.237 0 14.142l-5.303 5.303 23.926 14.356c3.007-1.631 6.199-2.962 9.538-3.954l6.766-27.065h-7.5c-5.523 0-10-4.477-10-10s4.477-10 10-10h30c5.523 0 10 4.477 10 10s-4.477 10-10 10h-7.5l6.766 27.065c3.339.992 6.531 2.324 9.538 3.954l23.926-14.356-5.303-5.303c-3.905-3.905-3.905-10.237 0-14.142s10.237-3.905 14.142 0l21.213 21.213c3.905 3.905 3.905 10.237 0 14.142-3.905 3.905-10.237 3.905-14.142 0l-5.303-5.303-14.355 23.926c1.631 3.007 2.962 6.199 3.954 9.538l27.063 6.766v-7.5c0-5.523 4.477-10 10-10s10 4.477 10 10z" fill="#f44545"/><path d="m278.731 163.5c-5.523 0-10-4.477-10-10v-11c0-5.523 4.477-10 10-10s10 4.477 10 10v11c0 5.523-4.477 10-10 10zm28.431-83.782-7.778 7.778c-3.905 3.905-3.905 10.237 0 14.142 3.905 3.905 10.237 3.905 14.142 0l7.778-7.778c3.905-3.905 3.905-10.237 0-14.142s-10.236-3.905-14.142 0zm-7.071 120.208c-3.905-3.905-10.237-3.905-14.142 0s-3.905 10.237 0 14.142l7.778 7.778c3.905 3.905 10.237 3.905 14.142 0s3.905-10.237 0-14.142zm67.64-117.426h11c5.523 0 10-4.477 10-10s-4.477-10-10-10h-11c-5.523 0-10 4.477-10 10s4.477 10 10 10zm81 50c-5.523 0-10 4.477-10 10v11c0 5.523 4.477 10 10 10s10-4.477 10-10v-11c0-5.523-4.477-10-10-10zm-70 100h-11c-5.523 0-10 4.477-10 10s4.477 10 10 10h11c5.523 0 10-4.477 10-10s-4.477-10-10-10zm49.346-130.861c3.905-3.905 3.905-10.237 0-14.142l-7.778-7.778c-3.905-3.905-10.237-3.905-14.142 0s-3.905 10.237 0 14.142l7.778 7.778c3.906 3.905 10.237 3.905 14.142 0zm-.707 98.287-7.778 7.778c-3.905 3.905-3.905 10.237 0 14.142s10.237 3.905 14.142 0l7.778-7.778c3.905-3.905 3.905-10.237 0-14.142s-10.236-3.905-14.142 0zm-63.639-92.426c-8.664 0-16.813 2.204-23.918 6.082-3.878 7.105-6.082 15.254-6.082 23.918 0 27.614 22.386 50 50 50 8.664 0 16.813-2.204 23.918-6.082 3.877-7.105 6.082-15.254 6.082-23.918 0-27.614-22.386-50-50-50z" fill="#f76c57"/><path d="m377.731 126.5c0 2.761-2.239 5-5 5s-5-2.239-5-5 2.239-5 5-5 5 2.239 5 5zm0 15c0 5.523 4.477 10 10 10s10-4.477 10-10-4.477-10-10-10-10 4.477-10 10zm-20 0c-5.523 0-10 4.477-10 10s4.477 10 10 10 10-4.477 10-10-4.477-10-10-10z" fill="#c42d2d"/><path d="m347.052 399.45c14.312 19.842.134 47.55-24.331 47.55h-237.18c-24.118-21.54-44.131-47.58-58.72-76.801l125.236-173.626c11.974-16.6 36.689-16.6 48.662 0z" fill="#ffc14f"/><path d="m195.924 191.335c-1.751 1.509-3.364 3.255-4.794 5.238l-146.334 202.877c-.149.207-.294.414-.437.622-6.491-9.517-12.357-19.494-17.539-29.873l125.236-173.626c10.543-14.617 30.965-16.363 43.868-5.238z" fill="#ff9f22"/><path d="m326.117 418.738c-1.282 2.506-3.861 4.083-6.677 4.083h-257.628c-4.167-4.846-8.155-9.849-11.955-15h254.926l-128.396-178.008-127.47 176.725c-3.128-4.295-6.125-8.691-8.986-13.183l130.374-180.75c1.41-1.954 3.673-3.112 6.083-3.112s4.673 1.158 6.083 3.112l143.053 198.329c1.646 2.283 1.876 5.297.593 7.804z" fill="#cc7400"/><path d="m183.971 390.108c0 4.188-3.395 7.583-7.583 7.583s-7.583-3.395-7.583-7.583 3.395-7.583 7.583-7.583 7.583 3.395 7.583 7.583zm-7.473-135.363c-4.142 0-7.5 3.358-7.5 7.5v97.084c0 4.142 3.358 7.5 7.5 7.5s7.5-3.358 7.5-7.5v-97.084c0-4.142-3.358-7.5-7.5-7.5zm-79.686-44.955v14.995c0 4.142-3.358 7.5-7.5 7.5s-7.5-3.358-7.5-7.5v-14.995c0-4.142 3.358-7.5 7.5-7.5s7.5 3.358 7.5 7.5zm-33.06 65.42c0-4.142-3.358-7.5-7.5-7.5h-14.169c-4.142 0-7.5 3.358-7.5 7.5s3.358 7.5 7.5 7.5h14.169c4.142 0 7.5-3.358 7.5-7.5zm-26.973-57.548c-2.929 2.929-2.929 7.678 0 10.607l23.458 23.458c2.929 2.929 7.678 2.929 10.607 0s2.929-7.678 0-10.607l-23.458-23.458c-2.929-2.929-7.678-2.929-10.607 0zm320.44 114.628c4.142 0 7.5 3.358 7.5 7.5v14.995c0 4.142-3.358 7.5-7.5 7.5s-7.5-3.358-7.5-7.5v-14.995c0-4.142 3.358-7.5 7.5-7.5zm33.06 80.42h14.169c4.142 0 7.5-3.358 7.5-7.5s-3.358-7.5-7.5-7.5h-14.169c-4.142 0-7.5 3.358-7.5 7.5s3.358 7.5 7.5 7.5zm8.866-65.048-23.458 23.458c-2.929 2.929-2.929 7.678 0 10.607s7.678 2.929 10.607 0l23.458-23.458c2.929-2.929 2.929-7.678 0-10.607-2.93-2.929-7.679-2.929-10.607 0z" fill="#fff5f5"/></g></svg>