<svg id="Capa_1" enable-background="new 0 0 512 512" height="512" viewBox="0 0 512 512" width="512" xmlns="http://www.w3.org/2000/svg"><g><path d="m512 256c0 64.669-23.979 123.737-63.53 168.799-.353.402-3.865 1.052-4.22 1.451-3.824 4.302-6.231 6.882-10.333 10.917-.438.431.721 2.204.281 2.632-46.088 44.69-108.93 72.201-178.198 72.201s-132.111-27.511-178.198-72.202c-.661-.641.476-2.4-.177-3.048-3.749-3.714-5.298-5.562-8.813-9.5-.471-.528-4.819-1.924-5.286-2.455-39.549-45.061-63.526-104.128-63.526-168.795 0-141.385 114.615-256 256-256s256 114.615 256 256z" fill="#44bfd7"/><path d="m490 264c0 119.294-96.706 216-216 216s-216-96.706-216-216 96.706-216 216-216 216 96.706 216 216z" fill="#7cd2e3"/><path d="m448.47 424.798c-4.555 5.19-9.317 10.194-14.273 15h-356.394c-4.956-4.806-9.718-9.81-14.273-15h184.97v-124.798h15v124.798z" fill="#9773bd"/><path d="m281 425c0 13.807-11.193 25-25 25s-25-11.193-25-25 11.193-25 25-25 25 11.193 25 25z" fill="#644189"/><path d="m281 425c0 3.126-.574 6.119-1.622 8.878-2.759 1.048-5.751 1.622-8.878 1.622-13.807 0-25-11.193-25-25 0-3.126.574-6.119 1.622-8.878 2.759-1.048 5.751-1.622 8.878-1.622 13.807 0 25 11.193 25 25z" fill="#754ca0"/><path d="m173 90v-72.5c0-4.143 3.358-7.5 7.5-7.5h151c4.142 0 7.5 3.357 7.5 7.5v72.5h-15v-65h-136v65z" fill="#533672"/><path d="m242 40h-46.5c-5.523 0-10-4.477-10-10v-20c0-5.523 4.477-10 10-10h46.5c5.523 0 10 4.477 10 10v20c0 5.523-4.477 10-10 10z" fill="#dd7d00"/><path d="m316.5 40h-86.5c-11.046 0-20-8.954-20-20 0-11.046 8.954-20 20-20h86.5c5.523 0 10 4.477 10 10v20c0 5.523-4.477 10-10 10z" fill="#ff9100"/><path d="m436 350h-360c-8.284 0-15-6.716-15-15v-250c0-8.284 6.716-15 15-15h360c8.284 0 15 6.716 15 15v250c0 8.284-6.716 15-15 15z" fill="#dd7d00"/><path d="m105 350h-29c-8.284 0-15-6.716-15-15v-250c0-8.284 6.716-15 15-15h29c-8.284 0-15 6.716-15 15v250c0 8.284 6.716 15 15 15z" fill="#cc7400"/><path d="m256 200c-63.462 0-121.53-23.092-166.261-61.332-10.323-8.824-28.739-63.668-28.739-63.668 0-8.284 6.716-15 15-15h360c8.284 0 15 6.716 15 15v34.872c-46.956 55.148-116.893 90.128-195 90.128z" fill="#ff9100"/><path d="m195 400h-180c-8.284 0-15-6.716-15-15v-90c0-8.284 6.716-15 15-15h180c8.284 0 15 6.716 15 15v90c0 8.284-6.716 15-15 15z" fill="#fff36c"/><path d="m195 400h-155c-8.284 0-15-6.716-15-15v-33c0-8.284 6.716-15 15-15h155c8.284 0 15 6.716 15 15v33c0 8.284-6.716 15-15 15zm15-100v-15c0-8.284-6.716-15-15-15h-180c-8.284 0-15 6.716-15 15v15c0 11.046 8.954 20 20 20h170c11.046 0 20-8.954 20-20z" fill="#fff79f"/><path d="m191.024 365h-43.524c-4.142 0-7.5-3.358-7.5-7.5 0-4.142 3.358-7.5 7.5-7.5h43.524c4.142 0 7.5 3.358 7.5 7.5 0 4.142-3.358 7.5-7.5 7.5zm7.5 17.5c0-4.142-3.358-7.5-7.5-7.5h-23.524c-4.142 0-7.5 3.358-7.5 7.5 0 4.142 3.358 7.5 7.5 7.5h23.524c4.142 0 7.5-3.358 7.5-7.5z" fill="#ffcd71"/><path d="m357.5 363.881v-43.524c0-4.142 3.358-7.5 7.5-7.5 4.142 0 7.5 3.358 7.5 7.5v43.524c0 4.142-3.358 7.5-7.5 7.5-4.142 0-7.5-3.358-7.5-7.5zm-25 7.5c4.142 0 7.5-3.358 7.5-7.5v-23.524c0-4.142-3.358-7.5-7.5-7.5-4.142 0-7.5 3.358-7.5 7.5v23.524c0 4.142 3.358 7.5 7.5 7.5zm57.5-7.5v-66.762c0-4.142 3.358-7.5 7.5-7.5 4.142 0 7.5 3.358 7.5 7.5v66.762c0 4.142-3.358 7.5-7.5 7.5-4.142 0-7.5-3.358-7.5-7.5z" fill="#fff5f5"/><path d="m190 320h-145c-11.046 0-20-8.954-20-20v-15c0-8.284 6.716-15 15-15h155c8.284 0 15 6.716 15 15v15c0 11.046-8.954 20-20 20z" fill="#fff5f5"/><path d="m261 250h-10c-8.284 0-15-6.716-15-15v-30c0-8.284 6.716-15 15-15h10c8.284 0 15 6.716 15 15v30c0 8.284-6.716 15-15 15z" fill="#ffc14f"/><path d="m261 230h-10c-8.284 0-15-6.716-15-15v-30c0-8.284 6.716-15 15-15h10c8.284 0 15 6.716 15 15v30c0 8.284-6.716 15-15 15z" fill="#fff79f"/><path d="m90 138.891c-10.421-8.885-20.122-18.591-29-29.019v-34.872c0-8.284 6.716-15 15-15h14z" fill="#dd7d00"/><path d="m126.667 330.5c0 13.807-11.193 25-25 25s-25-11.193-25-25 11.193-25 25-25 25 11.193 25 25z" fill="#ffc14f"/><path d="m114.667 330.5c0 7.18-5.82 13-13 13s-13-5.82-13-13 5.82-13 13-13 13 5.82 13 13z" fill="#ff9100"/></g></svg>