<svg id="Capa_1" enable-background="new 0 0 512 512" height="512" viewBox="0 0 512 512" width="512" xmlns="http://www.w3.org/2000/svg"><g><path d="m512 256c0 140.495-112.184 254.192-252.668 255.979-53.172.676-102.677-14.861-143.883-41.979 0-25.883-20.982-46.866-46.866-46.866h-6.501c-39.055-45.273-62.525-104.37-62.076-168.956.986-141.678 117.997-256.143 259.664-254.152 139.693 1.962 252.33 115.814 252.33 255.974z" fill="#9bcf1b"/><path d="m459.878 410.845c-17.584 23.117-39.01 43.153-63.326 59.155h-281.103c-24.316-16.003-45.742-36.038-63.326-59.155v-250.845h407.755z" fill="#fff79f"/><path d="m454.878 440h-397.756c-2.761 0-5-2.239-5-5v-300c0-2.761 2.239-5 5-5h397.755c2.761 0 5 2.239 5 5v300c.001 2.761-2.238 5-4.999 5z" fill="#fff5f5"/><path d="m457 170h-402c-8.284 0-15-6.716-15-15v-60c0-8.284 6.716-15 15-15h402c8.284 0 15 6.716 15 15v60c0 8.284-6.716 15-15 15z" fill="#f44545"/><path d="m457 144h-375.482c-8.284 0-15-6.716-15-15v-34c0-8.284 6.716-15 15-15h375.482c8.284 0 15 6.716 15 15v34c0 8.284-6.716 15-15 15z" fill="#fb5858"/><path d="m80 50v90c0 5.523-4.477 10-10 10s-10-4.477-10-10v-90c0-5.523 4.477-10 10-10s10 4.477 10 10zm30-10c-5.523 0-10 4.477-10 10v90c0 5.523 4.477 10 10 10s10-4.477 10-10v-90c0-5.523-4.477-10-10-10zm300 100v-90c0-5.523-4.477-10-10-10-5.523 0-10 4.477-10 10v90c0 5.523 4.477 10 10 10 5.523 0 10-4.477 10-10zm40 0v-90c0-5.523-4.477-10-10-10-5.523 0-10 4.477-10 10v90c0 5.523 4.477 10 10 10 5.523 0 10-4.477 10-10z" fill="#ffcd71"/><path d="m80 72.953v40c0 5.523-4.477 10-10 10s-10-4.477-10-10v-40c0-5.523 4.477-10 10-10s10 4.477 10 10zm30-10c-5.523 0-10 4.477-10 10v40c0 5.523 4.477 10 10 10s10-4.477 10-10v-40c0-5.523-4.477-10-10-10zm330 0c-5.523 0-10 4.477-10 10v40c0 5.523 4.477 10 10 10s10-4.477 10-10v-40c0-5.523-4.477-10-10-10zm-40 0c-5.523 0-10 4.477-10 10v40c0 5.523 4.477 10 10 10s10-4.477 10-10v-40c0-5.523-4.477-10-10-10z" fill="#fff68e"/><path d="m152 270c0 11.046-8.954 20-20 20s-20-8.954-20-20 8.954-20 20-20 20 8.954 20 20zm42-20c-11.046 0-20 8.954-20 20s8.954 20 20 20 20-8.954 20-20-8.954-20-20-20zm62 0c-11.046 0-20 8.954-20 20s8.954 20 20 20 20-8.954 20-20-8.954-20-20-20zm62 0c-11.046 0-20 8.954-20 20s8.954 20 20 20 20-8.954 20-20-8.954-20-20-20zm62 0c-11.046 0-20 8.954-20 20s8.954 20 20 20 20-8.954 20-20-8.954-20-20-20zm-248 60c-11.046 0-20 8.954-20 20s8.954 20 20 20 20-8.954 20-20-8.954-20-20-20z" fill="#fc7979"/><path d="m214 330c0 11.046-8.954 20-20 20s-20-8.954-20-20 8.954-20 20-20 20 8.954 20 20z" fill="#f44545"/><path d="m338 330c0 11.046-8.954 20-20 20s-20-8.954-20-20 8.954-20 20-20 20 8.954 20 20zm-82-20c-11.046 0-20 8.954-20 20s8.954 20 20 20 20-8.954 20-20-8.954-20-20-20zm-104 80c0 11.046-8.954 20-20 20s-20-8.954-20-20 8.954-20 20-20 20 8.954 20 20zm62 0c0 11.046-8.954 20-20 20s-20-8.954-20-20 8.954-20 20-20 20 8.954 20 20zm62 0c0 11.046-8.954 20-20 20s-20-8.954-20-20 8.954-20 20-20 20 8.954 20 20zm27.5-180h-95c-4.142 0-7.5-3.358-7.5-7.5 0-4.142 3.358-7.5 7.5-7.5h95c4.142 0 7.5 3.358 7.5 7.5 0 4.142-3.358 7.5-7.5 7.5z" fill="#fbb3a8"/><path d="m500 385c0 57.99-47.01 105-105 105s-105-47.01-105-105 47.01-105 105-105 105 47.01 105 105z" fill="#644189"/><path d="m500 385c0 20.026-5.606 38.742-15.335 54.665-15.923 9.728-34.639 15.335-54.665 15.335-57.99 0-105-47.01-105-105 0-20.026 5.606-38.742 15.335-54.665 15.923-9.729 34.639-15.335 54.665-15.335 57.99 0 105 47.01 105 105z" fill="#754ca0"/><path d="m433.401 427.668h-76.802v-69.335h76.802z" fill="#dce6eb"/><path d="m407.067 406.334h-24.134c-2.761 0-5-2.239-5-5v-16.667c0-2.761 2.239-5 5-5h24.134c2.761 0 5 2.239 5 5v16.667c0 2.761-2.239 5-5 5z" fill="#ffc14f"/><path d="m436.568 439.135h-83.136c-4.142 0-7.5-3.358-7.5-7.5v-1c0-4.142 3.358-7.5 7.5-7.5h83.136c4.142 0 7.5 3.358 7.5 7.5v1c0 4.142-3.358 7.5-7.5 7.5z" fill="#fff5f5"/><path d="m413 353.055v-33.136c0-4.142 3.358-7.5 7.5-7.5h1c4.142 0 7.5 3.358 7.5 7.5v33.136c0 4.142-3.358 7.5-7.5 7.5h-1c-4.143 0-7.5-3.358-7.5-7.5z" fill="#958fca"/><path d="m339.108 363.26 53.818-45.828c1.196-1.018 2.954-1.018 4.149 0l53.818 45.828c2.266 1.929.901 5.636-2.075 5.636h-107.636c-2.976 0-4.34-3.707-2.074-5.636z" fill="#f76c57"/></g></svg>