<svg id="Capa_1" enable-background="new 0 0 512 512" height="512" viewBox="0 0 512 512" width="512" xmlns="http://www.w3.org/2000/svg"><g><path d="m512 256c0 141.385-114.615 256-256 256-103.966 0-193.457-61.976-233.544-150.998-1.038-2.305-2.456-18.278-2.456-24.002 0-34.727-19.051-103.356-18.795-106 12.566-129.652 121.845-231 254.795-231 141.385 0 256 114.615 256 256z" fill="#f44545"/><path d="m512 276.593c0 11.086-8.987 20.074-20.074 20.074h-143.272c-4.562 0-8.26 3.698-8.26 8.26 0 4.562 3.698 8.26 8.26 8.26h113.272c11.086 0 20.073 8.987 20.073 20.073 0 11.086-8.987 20.074-20.074 20.074h-113.271c-4.562 0-8.26 3.698-8.26 8.26 0 4.562 3.698 8.26 8.26 8.26h62.791c10.885 0 20.155 8.464 20.542 19.342.406 11.42-8.731 20.806-11.666 20.806h-200.495c-37.04 0-64.741-10.247-86.49-28.889l-36.296-31.113v-120l60-30h127.633c.8-.097 1.614-.147 2.44-.147h174.332c10.885 0 20.155 8.464 20.542 19.342.406 11.42-8.731 20.806-20.06 20.806h-129.927v16.519h159.927c11.086 0 20.073 8.987 20.073 20.073z" fill="#ffc14f"/><path d="m224.54 240c0 42.733-34.767 77.5-77.5 77.5-4.143 0-7.5-3.358-7.5-7.5s3.357-7.5 7.5-7.5c34.463 0 62.5-28.038 62.5-62.5 0-4.142 3.357-7.5 7.5-7.5s7.5 3.358 7.5 7.5z" fill="#ff9f22"/><path d="m258.797 270.672c-25.8-20.424-47.012-46.876-61.342-76.497-14.33-29.622-21.905-62.672-21.905-95.577v-50.968c41.804-19.995 86.685-30.13 133.475-30.13s91.672 10.135 133.475 30.13v50.968c0 32.905-7.575 65.955-21.905 95.577-14.33 29.621-35.542 56.073-61.341 76.497l-50.229 39.763z" fill="#a6e0ec"/><path d="m391.895 79.819v11.477c0 26.966-6.208 54.052-17.952 78.328-11.743 24.275-29.126 45.953-50.27 62.691l-14.648 11.596-14.648-11.596c-21.144-16.738-38.527-38.416-50.27-62.69-11.744-24.277-17.952-51.362-17.952-78.328v-11.478c26.616-8.187 54.354-12.319 82.87-12.319 28.517 0 56.255 4.132 82.87 12.319z" fill="#2cb3cd"/><path d="m309.025 10c-49.524 0-96.399 11.341-138.17 31.567-1.721.833-2.805 2.588-2.805 4.5v52.531c0 69.356 31.712 134.906 86.091 177.954l51.78 40.991c1.819 1.44 4.388 1.44 6.207 0l51.78-40.991c54.38-43.048 86.092-108.598 86.092-177.954v-52.531c0-1.912-1.084-3.667-2.805-4.5-41.771-20.226-88.646-31.567-138.17-31.567zm125.975 88.598c0 31.781-7.316 63.701-21.156 92.31-13.841 28.609-34.327 54.157-59.245 73.883l-45.573 36.077-45.573-36.078c-24.918-19.726-45.405-45.274-59.245-73.883s-21.156-60.529-21.156-92.31v-46.2c39.568-18.186 81.899-27.397 125.973-27.397s86.406 9.211 125.975 27.397z" fill="#60c8dd"/><path d="m374.777 75.15-50.896 156.998c-.069.055-.138.111-.208.166l-14.648 11.596-14.648-11.596c-.555-.439-1.107-.883-1.656-1.329l52.272-161.244c10.055 1.268 19.988 3.072 29.784 5.409zm-65.752-7.65c-12.729 0-25.302.824-37.69 2.464l-30.205 93.173c.949 2.183 1.942 4.345 2.977 6.486 6.571 13.583 14.909 26.353 24.683 37.9l45.378-139.978c-1.711-.03-3.426-.045-5.143-.045z" fill="#7cd2e3"/><path d="m385 75c0 4.142-3.358 7.5-7.5 7.5h-20v20c0 4.142-3.358 7.5-7.5 7.5s-7.5-3.358-7.5-7.5v-20h-20c-4.142 0-7.5-3.358-7.5-7.5s3.358-7.5 7.5-7.5h20v-20c0-4.142 3.358-7.5 7.5-7.5s7.5 3.358 7.5 7.5v20h20c4.142 0 7.5 3.358 7.5 7.5z" fill="#fff5f5"/><path d="m1.206 231h105.834v130h-84.585c-14.427-32.04-22.455-67.582-22.455-105 0-8.435.408-16.774 1.206-25z" fill="#ffbeaa"/><path d="m107.04 329.894v31.106h-84.585c-4.521-10.041-8.414-20.427-11.629-31.106z" fill="#faa68e"/><path d="m320.073 160.074c0 11.086-8.987 20.074-20.074 20.074h-82.671c-2.652 0-5.196 1.054-7.071 2.929l-88.951 88.951c-7.839 7.839-20.549 7.839-28.388 0-7.839-7.839-7.839-20.549 0-28.388l97.612-97.612c3.906-3.906 9.021-5.865 14.14-5.879.801-.097 1.616-.148 2.443-.148h92.887c11.086-.001 20.073 8.986 20.073 20.073z" fill="#ffc14f"/><path d="m118.723 304.726v70.549c0 10.055-8.987 18.206-20.074 18.206-11.086 0-20.074-8.151-20.074-18.206v-70.549c0-10.055 8.987-18.206 20.074-18.206 11.087 0 20.074 8.151 20.074 18.206z" fill="#ffcd71"/><path d="m118.723 216.726v118.549c0 10.055-8.987 18.206-20.074 18.206s-20.074-8.151-20.074-18.206v-118.549c0-10.055 8.987-18.206 20.074-18.206s20.074 8.151 20.074 18.206z" fill="#fff79f"/><path d="m300 180.147h-16.443c-11.086 0-20.073-8.987-20.073-20.074 0-11.086 8.987-20.074 20.073-20.074h16.443c11.086 0 20.073 8.987 20.073 20.074 0 11.087-8.987 20.074-20.073 20.074zm-30 194.853c0 8.284-20.147 15-45 15s-45-6.716-45-15 20.147-15 45-15 45 6.716 45 15zm162.815 14.926c0-11.086-8.987-20.074-20.073-20.074h-16.443c-11.086 0-20.073 8.987-20.073 20.074 0 11.086 8.987 20.074 20.073 20.074h16.443c11.086 0 20.073-8.987 20.073-20.074zm49.185-56.666c0-11.086-8.987-20.074-20.073-20.074h-16.443c-11.086 0-20.073 8.987-20.073 20.074 0 11.086 8.987 20.074 20.073 20.074h16.443c11.086-.001 20.073-8.988 20.073-20.074zm30-56.667c0-11.086-8.987-20.074-20.073-20.074h-16.443c-11.086 0-20.073 8.987-20.073 20.074 0 11.086 8.987 20.074 20.073 20.074h16.443c11.086 0 20.073-8.988 20.073-20.074z" fill="#ffcd71"/><path d="m261.13 314.18c0 4.142-3.358 7.5-7.5 7.5h-5v5c0 4.142-3.358 7.5-7.5 7.5s-7.5-3.358-7.5-7.5v-5h-5c-4.142 0-7.5-3.358-7.5-7.5 0-4.142 3.358-7.5 7.5-7.5h5v-5c0-4.142 3.358-7.5 7.5-7.5s7.5 3.358 7.5 7.5v5h5c4.142 0 7.5 3.358 7.5 7.5z" fill="#fff79f"/><path d="m404.562 258.676c0 4.142-3.358 7.5-7.5 7.5h-5v5c0 4.142-3.358 7.5-7.5 7.5s-7.5-3.358-7.5-7.5v-5h-5c-4.142 0-7.5-3.358-7.5-7.5 0-4.142 3.358-7.5 7.5-7.5h5v-5c0-4.142 3.358-7.5 7.5-7.5s7.5 3.358 7.5 7.5v5h5c4.142 0 7.5 3.358 7.5 7.5z" fill="#fff5f5"/></g></svg>