<svg id="Capa_1" enable-background="new 0 0 512 512" height="512" viewBox="0 0 512 512" width="512" xmlns="http://www.w3.org/2000/svg"><g><path d="m512 256c0 141.385-114.615 256-256 256s-256-114.615-256-256 114.615-256 256-256 256 114.615 256 256z" fill="#ffb52d"/><path d="m472 256c0 119.293-96.706 216-216 216s-216-96.707-216-216 96.706-216 216-216 216 96.707 216 216z" fill="#ffc14f"/><path d="m358.944 411.663c-1.465 1.464-3.385 2.196-5.304 2.196s-3.839-.732-5.304-2.196c-2.929-2.93-2.929-7.678 0-10.607 8.744-8.743 8.744-22.971 0-31.714-14.592-14.594-14.592-38.337 0-52.93 2.93-2.928 7.678-2.928 10.607 0 2.929 2.93 2.929 7.678 0 10.607-8.744 8.743-8.744 22.971 0 31.716 14.593 14.592 14.593 38.335.001 52.928z" fill="#c42d2d"/><path d="m308.286 448.657c3.501 7.508.253 16.433-7.255 19.934s-16.433.253-19.934-7.255l-6.339-13.595c-7.508 3.501-16.433.252-19.934-7.255l-80.297-172.199c-3.501-7.508-.253-16.433 7.255-19.934l27.189-12.679c7.508-3.501 16.433-.253 19.934 7.255l80.297 172.198c3.501 7.508.253 16.433-7.255 19.934z" fill="#533672"/><path d="m295.012 394.161-47.128 21.976c-7.508 3.501-16.433.253-19.934-7.255l-71.845-154.072c-3.501-7.508-.253-16.433 7.255-19.934l47.128-21.976c7.508-3.501 16.433-.253 19.934 7.255l71.845 154.072c3.501 7.509.253 16.433-7.255 19.934z" fill="#754ca0"/><path d="m251.223 359.411-1.813.845c-7.508 3.501-16.433.253-19.934-7.255l-25.357-54.378c-3.501-7.508-.253-16.433 7.255-19.934l1.813-.845c7.508-3.501 16.433-.253 19.934 7.255l25.357 54.378c3.501 7.509.253 16.433-7.255 19.934z" fill="#533672"/><path d="m203.829 260.14c-40.043 18.672-87.642 1.348-106.314-38.695s-1.348-87.642 38.695-106.314 87.642-1.348 106.314 38.695 1.348 87.642-38.695 106.314z" fill="#6a61b4"/><path d="m203.829 260.14c-40.043 18.672-87.642 1.348-106.314-38.695s-1.348-87.642 38.695-106.314 87.642-1.348 106.314 38.695 1.348 87.642-38.695 106.314z" fill="#865cb2"/><path d="m240.328 225.812c-7.888 14.554-20.345 26.795-36.5 34.329-40.043 18.672-87.642 1.348-106.314-38.695-17.978-38.554-2.587-84.111 34.322-104.112-11.663 21.521-13.335 48.097-2.196 71.985 18.672 40.043 66.271 57.367 106.314 38.695 1.491-.695 2.948-1.43 4.374-2.202z" fill="#754ca0"/><path d="m203.829 260.14c-40.043 18.672-87.642 1.348-106.314-38.695-1.139-2.443-2.144-4.914-3.018-7.404 24.419 1.019 52.385-4.582 79.749-17.342s49.631-30.583 64.546-49.944c1.346 2.271 2.593 4.628 3.732 7.071 18.672 40.043 1.348 87.642-38.695 106.314z" fill="#644189"/><path d="m240.328 225.812c-1.426.772-2.884 1.507-4.373 2.202-32.937 15.359-70.984 6.363-93.843-19.596 10.638-2.833 21.431-6.728 32.133-11.718 27.364-12.76 49.631-30.583 64.546-49.944 1.346 2.271 2.593 4.628 3.732 7.071 11.14 23.887 9.468 50.464-2.195 71.985z" fill="#754ca0"/><path d="m130.943 174.566c0 4.588-3.719 8.307-8.307 8.307s-8.307-3.719-8.307-8.307 3.719-8.307 8.307-8.307c4.587 0 8.307 3.719 8.307 8.307zm2.862-37.592c-4.588 0-8.307 3.719-8.307 8.307s3.719 8.307 8.307 8.307 8.307-3.719 8.307-8.307-3.719-8.307-8.307-8.307zm29.198-12.94c-4.588 0-8.307 3.719-8.307 8.307s3.719 8.307 8.307 8.307 8.307-3.719 8.307-8.307c0-4.587-3.72-8.307-8.307-8.307zm-6.146 29.554c-4.588 0-8.307 3.719-8.307 8.307s3.719 8.307 8.307 8.307 8.307-3.719 8.307-8.307-3.719-8.307-8.307-8.307z" fill="#533672"/><path d="m244.275 144.42c-16.574 21.513-41.178 40.577-69.279 53.681-26.03 12.139-54.052 18.69-79.604 18.69-2.034 0-4.05-.041-6.05-.125-4.139-.172-7.354-3.667-7.181-7.806.168-4.032 3.49-7.188 7.487-7.188.106 0 .212.002.318.007 24.768 1.031 52.722-5.064 78.688-17.173 25.966-12.108 48.602-29.596 63.736-49.241 2.528-3.282 7.235-3.894 10.519-1.364 3.283 2.529 3.894 7.238 1.366 10.519z" fill="#9773bd"/><path d="m366.785 317.544c3.287 3.369 5.631 7.664 6.604 12.456h-49c.973-4.792 3.317-9.087 6.604-12.456-40.514-11.23-70.993-59.212-70.993-107.544 0-55.229 39.797-90 88.889-90s88.889 34.771 88.889 90c0 48.332-30.479 96.314-70.993 107.544z" fill="#f44545"/><path d="m437.778 210c0 19.064-4.742 38.073-12.971 54.795-8.2 3.358-16.902 5.205-25.917 5.205-49.093 0-88.89-54.771-88.89-110 0-12.533 2.05-24.012 5.792-34.271 10.229-3.755 21.399-5.729 33.097-5.729 49.092 0 88.889 34.771 88.889 90z" fill="#fb5858"/><path d="m420 215c.002 18.145-9.979 35.858-15 35-5.529-.945-5.626-24.515-5.667-34.333-.036-8.916-.143-34.677 5.667-35.667 5.045-.86 14.998 16.884 15 35z" fill="#fd9a9a"/><path d="m113.363 314.143c0 7.343-2.862 14.248-8.061 19.445-1.464 1.464-3.384 2.196-5.303 2.196-1.92 0-3.839-.732-5.304-2.197-2.929-2.929-2.929-7.678.001-10.606 2.364-2.363 3.666-5.503 3.666-8.838 0-3.336-1.302-6.476-3.666-8.839-10.723-10.723-10.723-28.169-.001-38.892 2.93-2.928 7.678-2.928 10.607 0 2.929 2.93 2.929 7.678 0 10.607-4.874 4.873-4.874 12.804 0 17.677 5.199 5.198 8.061 12.103 8.061 19.447z" fill="#f76c57"/><path d="m201.959 82.196c10.721 10.722 10.722 28.168-.001 38.892-2.364 2.363-3.666 5.503-3.666 8.839 0 3.335 1.302 6.475 3.666 8.838 2.93 2.929 2.93 7.678.001 10.606-2.93 2.93-7.679 2.929-10.606.001-5.198-5.197-8.061-12.103-8.061-19.445 0-7.344 2.862-14.249 8.06-19.445 4.874-4.874 4.874-12.805 0-17.678-2.929-2.93-2.929-7.678 0-10.607 1.465-1.464 3.385-2.196 5.304-2.196s3.838.731 5.303 2.195zm280.541 173.804c0 60.5-23.56 117.379-66.34 160.16s-99.66 66.34-160.16 66.34-117.379-23.56-160.16-66.34-66.34-99.66-66.34-160.16 23.56-117.379 66.34-160.16 99.66-66.34 160.16-66.34 117.379 23.56 160.16 66.34 66.34 99.66 66.34 160.16zm-385.298 139.706 298.504-298.504c-39.808-35.069-89.757-52.603-139.706-52.603-54.161 0-108.321 20.616-149.553 61.848-79.258 79.258-82.339 206.286-9.245 289.259zm309.408-288.195-299.099 299.099c82.55 81.405 215.932 81.053 298.042-1.057s82.462-215.491 1.057-298.042z" fill="#fff5f5"/><path d="m282.021 105.42c-1.465 1.464-3.385 2.196-5.304 2.196s-3.839-.732-5.304-2.196c-2.929-2.93-2.929-7.678 0-10.607 4.874-4.873 4.874-12.804 0-17.678-5.197-5.196-8.06-12.102-8.06-19.445s2.862-14.248 8.061-19.445c2.928-2.928 7.677-2.929 10.606.001 2.929 2.929 2.929 7.678-.001 10.606-2.364 2.363-3.666 5.503-3.666 8.838 0 3.336 1.302 6.476 3.666 8.839 10.723 10.723 10.723 28.17.002 38.891z" fill="#533672"/></g></svg>