<svg id="Capa_1" enable-background="new 0 0 512 512" height="512" viewBox="0 0 512 512" width="512" xmlns="http://www.w3.org/2000/svg"><g><path d="m512 256c0 141.385-114.615 256-256 256-37.087 0-72.332-7.887-104.15-22.074-1.401-.625-113.459-99.005-114.406-100.553-23.754-38.843-37.444-84.509-37.444-133.373 0-141.385 114.615-256 256-256s256 114.615 256 256z" fill="#44bfd7"/><path d="m442 256c0 102.725-83.275 186-186 186s-186-83.275-186-186 83.275-186 186-186 186 83.275 186 186z" fill="#7cd2e3"/><path d="m187 220h-117c-38.66 0-70-31.34-70-70v-50c0-38.66 31.34-70 70-70h117c38.66 0 70 31.34 70 70v50c0 38.66-31.34 70-70 70z" fill="#f44545"/><path d="m257 100v50c0 38.66-31.34 70-70 70h-25.571l6.532 22.861c1.022 3.578-1.664 7.139-5.385 7.139-1.635 0-3.188-.714-4.252-1.956l-24.038-28.044h-31.177c-38.66 0-70-31.34-70-70v-50c0-38.66 31.34-70 70-70h83.891c38.66 0 70 31.34 70 70z" fill="#fb5858"/><path d="m393.017 141.275c7.81 7.81 7.81 20.474 0 28.284l-36.094 36.094c-4.029 4.029-6.148 9.584-5.826 15.272l3.23 57.072c.322 5.688-1.797 11.244-5.826 15.272l-196.653 196.656c-47.558-21.206-87.458-56.49-114.405-100.555l203.579-203.579c4.029-4.029 9.584-6.148 15.272-5.826l57.072 3.23c5.688.322 11.244-1.797 15.272-5.826l36.094-36.094c7.811-7.81 20.475-7.81 28.285 0z" fill="#fff5f5"/><path d="m61.234 422.146c-8.758-10.257-16.721-21.215-23.792-32.777l203.579-203.579c4.029-4.029 9.584-6.148 15.272-5.826l44.598 2.524z" fill="#def4f8"/><path d="m387.36 175.216-28.284-28.284 77.782-77.782c7.81-7.81 20.474-7.81 28.284 0 7.81 7.81 7.81 20.474 0 28.284z" fill="#865cb2"/><path d="m466.362 70.484c-2.584.972-5.008 2.498-7.087 4.577l-86.035 86.035-14.165-14.165 77.782-77.782c7.811-7.811 20.474-7.811 28.284 0 .432.432.838.877 1.221 1.335z" fill="#754ca0"/><path d="m127.066 451.066-43.841-43.841c-5.858-5.858-5.858-15.355 0-21.213l53.867-53.867c17.964-17.964 47.09-17.964 65.054 0 17.964 17.964 17.964 47.09 0 65.054l-53.867 53.867c-5.857 5.858-15.355 5.858-21.213 0z" fill="#84b017"/><path d="m130.443 403.849c-17.964-17.964-17.964-47.09 0-65.054l100.647-100.646c5.858-5.858 15.355-5.858 21.213 0l43.841 43.841c5.858 5.858 5.858 15.355 0 21.213l-100.647 100.646c-17.964 17.964-47.09 17.964-65.054 0z" fill="#9bcf1b"/><path d="m241.696 259.362c-2.929 2.929-7.678 2.929-10.607 0-2.929-2.929-2.929-7.678 0-10.607s7.678-2.929 10.606 0c2.93 2.929 2.93 7.678.001 10.607zm-32.992 36.174c-2.929-2.929-7.678-2.929-10.606 0-2.929 2.929-2.929 7.678 0 10.607l30.052 30.052c2.929 2.929 7.678 2.929 10.607 0 2.929-2.929 2.929-7.677 0-10.606zm-42.427 42.427c-2.929-2.929-7.678-2.929-10.607 0-2.929 2.929-2.929 7.678 0 10.607l30.052 30.052c2.929 2.929 7.678 2.929 10.607 0 2.929-2.929 2.929-7.678 0-10.607zm-21.213 21.213c-2.929-2.929-7.678-2.929-10.607 0s-2.929 7.677 0 10.606l30.052 30.052c2.929 2.929 7.678 2.929 10.607 0 2.929-2.929 2.929-7.677 0-10.607zm-21.213 21.213c-2.929-2.929-7.678-2.929-10.607 0s-2.929 7.677 0 10.606l30.052 30.052c2.929 2.929 7.678 2.929 10.606 0 2.929-2.929 2.929-7.677 0-10.606z" fill="#6e9213"/><path d="m85 190c-19.33 0-35-15.67-35-35v-60c0-19.33 15.67-35 35-35 19.33 0 35 15.67 35 35v60c0 19.33-15.67 35-35 35z" fill="#f87b67"/><path d="m85 126.25c-5.523 0-10-4.477-10-10v-31.25c0-5.523 4.477-10 10-10 5.523 0 10 4.477 10 10v31.25c0 5.523-4.477 10-10 10zm105-32.5c0-4.142-3.358-7.5-7.5-7.5h-35c-4.142 0-7.5 3.358-7.5 7.5 0 4.142 3.358 7.5 7.5 7.5h35c4.142 0 7.5-3.358 7.5-7.5zm-20 32.5c0-4.142-3.358-7.5-7.5-7.5h-15c-4.142 0-7.5 3.358-7.5 7.5 0 4.142 3.358 7.5 7.5 7.5h15c4.142 0 7.5-3.358 7.5-7.5zm0 30c0-4.142-3.358-7.5-7.5-7.5h-15c-4.142 0-7.5 3.358-7.5 7.5 0 4.142 3.358 7.5 7.5 7.5h15c4.142 0 7.5-3.358 7.5-7.5z" fill="#fff5f5"/><path d="m105 155c0 11.046-8.954 20-20 20s-20-8.954-20-20c0-7.403 4.022-13.866 10-17.324v-22.676c0-5.523 4.477-10 10-10s10 4.477 10 10v22.676c5.978 3.458 10 9.921 10 17.324z" fill="#c42d2d"/><path d="m391.25 406.25c0 4.142-3.358 7.5-7.5 7.5h-5v5c0 4.142-3.358 7.5-7.5 7.5s-7.5-3.358-7.5-7.5v-5h-5c-4.142 0-7.5-3.358-7.5-7.5 0-4.142 3.358-7.5 7.5-7.5h5v-5c0-4.142 3.358-7.5 7.5-7.5s7.5 3.358 7.5 7.5v5h5c4.142 0 7.5 3.358 7.5 7.5z" fill="#a6e0ec"/><path d="m448.75 313.75c0 4.142-3.358 7.5-7.5 7.5h-5v5c0 4.142-3.358 7.5-7.5 7.5s-7.5-3.358-7.5-7.5v-5h-5c-4.142 0-7.5-3.358-7.5-7.5 0-4.142 3.358-7.5 7.5-7.5h5v-5c0-4.142 3.358-7.5 7.5-7.5s7.5 3.358 7.5 7.5v5h5c4.142 0 7.5 3.358 7.5 7.5z" fill="#fff5f5"/></g></svg>