<svg id="Capa_1" enable-background="new 0 0 512 512" height="512" viewBox="0 0 512 512" width="512" xmlns="http://www.w3.org/2000/svg"><g><path d="m180.05 11.455c24.484-7.596 50.542-11.616 77.562-11.45 27.381.169 53.718 4.603 78.384 12.673 2.219.726-2.188 14.266.003 15.05 30.022 10.745 56.146 23.587 79.75 44.021 2.398 2.076 12.643-5.251 14.961-3.088 10.281 9.59 19.768 20.02 28.352 31.181.912 1.186-.455 10.122.436 11.324 6.899 9.302 13.228 15.618 18.833 25.833.98 1.785 4.161-.686 5.099 1.125 18.265 35.264 28.57 75.344 28.57 117.877 0 33.187-6.315 64.898-17.809 93.999h-324.191v-324.861c0-6.267 4.065-11.828 10.05-13.684z" fill="#2cb3cd"/><path d="m483.432 138.126-119.313 211.874h-45.91l140.858-250.154c9.202 11.964 17.368 24.769 24.365 38.28zm-147.438-125.448-165.994 294.811v42.511h102.302l158.41-281.338c-26.805-25.004-59.011-44.303-94.718-55.984z" fill="#7cd2e3"/><path d="m140 390h-102.171c-23.991-38.978-37.829-84.873-37.829-134 0-91.485 47.989-171.762 120.167-217.032 8.625-5.409 19.833.736 19.833 10.917z" fill="#ffc14f"/><path d="m8.614 189.904c3.676-13.794 8.476-27.13 14.294-39.904h47.092c5.523 0 10 4.477 10 10v20c0 5.523-4.477 10-10 10h-60c-.47 0-.933-.033-1.386-.096z" fill="#ff9100"/><path d="m.031 260h39.969c5.523 0 10 4.477 10 10v20c0 5.523-4.477 10-10 10h-36.233c-2.256-13.022-3.527-26.382-3.736-40zm139.969-170h-50c-5.523 0-10 4.477-10 10v20c0 5.523 4.477 10 10 10h50z" fill="#ffb52d"/><path d="m150 260h-60c-5.523 0-10-4.477-10-10v-20c0-5.523 4.477-10 10-10h60c5.523 0 10 4.477 10 10v20c0 5.523-4.477 10-10 10z" fill="#ffcd71"/><path d="m410 51.29v328.71h-30v-348.21c10.472 5.809 20.494 12.331 30 19.5zm-280-18.186v346.896h50v-368.53c-17.55 5.449-34.292 12.735-50 21.634z" fill="#fff5f5"/><path d="m140 27.729v352.271h-20v-340.927c6.477-4.069 13.15-7.857 20-11.344zm240 4.061v348.21h20v-335.882c-6.461-4.403-13.134-8.519-20-12.328z" fill="#dce6eb"/><path d="m329.709 271.922c-22.841 41.013-47.224 70.993-54.462 66.962-3.779-2.105-2.136-13.067 3.549-28.901-.026-.009-.052-.017-.078-.027-4.159-1.51-4.191-13.073-.877-30.242-4.671-14.402-7.841-42.46-7.841-74.714 0-46.944 6.716-85 15-85s15 38.056 15 85c0 1.139-.004 2.273-.012 3.402 14.474-35.642 29.981-60.697 36.76-58.235 6.827 2.479 2.535 32.044-9.427 69.031 14.029-19.746 25.944-31.45 30.64-28.835 7.238 4.031-5.411 40.546-28.252 81.559z" fill="#6dc54a"/><path d="m280.844 218.309c12.157 45.343 15.526 83.839 7.524 85.985-8.002 2.145-24.344-32.873-36.501-78.216s-15.526-83.839-7.524-85.985 24.344 32.874 36.501 78.216z" fill="#5db33a"/><path d="m245.802 287.165c-28.459-37.335-46.188-71.671-39.6-76.693 2.59-1.974 8.553.876 16.566 7.331-14.627-26.912-21.751-47.826-16.524-51.193 6.965-4.486 33.216 23.873 58.634 63.34 11.884 18.452 21.481 36.066 27.621 50.05 6.994 15.926-18.238 44.499-46.697 7.165z" fill="#5ca33b"/><path d="m330 390h-100l-30-140h130z" fill="#ff9f22"/><path d="m240 250h120l-30 140h-90z" fill="#ffb655"/><path d="m360 270h-160c-5.523 0-10-4.477-10-10v-10c0-5.523 4.477-10 10-10h160c5.523 0 10 4.477 10 10v10c0 5.523-4.477 10-10 10z" fill="#ffc14f"/><path d="m360 270h-130c-5.523 0-10-4.477-10-10v-10c0-5.523 4.477-10 10-10h130c5.523 0 10 4.477 10 10v10c0 5.523-4.477 10-10 10z" fill="#ffcd71"/><path d="m508.115 300.677c-4.362 24.786-12.29 48.342-23.235 70.122-5.921 11.781-18 19.201-31.185 19.201h-14.195l-291 2.5-109.896-1.25c-.235-.238-.369-.373-.604-.611v-53.639c0-19.233 15.728-35.729 34.962-35.75 14.442-.016 26.845 8.716 32.207 21.189 6.161-5.409 14.238-8.689 23.081-8.689 9.035 0 17.271 3.424 23.48 9.045 5.556-11.983 17.692-20.295 31.77-20.295 14.778 0 27.417 9.159 32.55 22.11 6.111-5.213 14.038-8.36 22.7-8.36 9.035 0 17.271 3.424 23.48 9.045 5.556-11.983 17.692-20.295 31.77-20.295 14.778 0 27.417 9.159 32.55 22.11 6.111-5.213 14.038-8.36 22.7-8.36 9.035 0 17.271 3.424 23.48 9.045 5.556-11.983 17.692-20.295 31.77-20.295 14.425 0 26.812 8.727 32.169 21.189 6.161-5.409 14.238-8.689 23.081-8.689 7.944 0 15.27 2.647 21.144 7.107 3.071-13.326 13.752-23.743 27.221-26.43z" fill="#9bcf1b"/><path d="m38.604 391.25c-.235-.238-.369-.373-.604-.611v-24.317c0-19.233 15.728-35.729 34.961-35.75 14.442-.016 26.845 8.716 32.208 21.189 6.161-5.409 14.238-8.689 23.081-8.689 9.035 0 17.271 3.424 23.48 9.045 5.556-11.983 17.692-20.295 31.77-20.295 14.778 0 27.417 9.159 32.55 22.11 6.111-5.213 14.038-8.36 22.7-8.36 9.035 0 17.271 3.424 23.48 9.045 5.556-11.983 17.692-20.295 31.77-20.295 14.778 0 27.417 9.159 32.55 22.11 6.111-5.213 14.038-8.36 22.7-8.36 9.035 0 17.271 3.424 23.48 9.045 5.556-11.983 17.692-20.295 31.77-20.295 14.425 0 26.812 8.727 32.169 21.189 6.161-5.409 14.238-8.689 23.081-8.689 7.944 0 15.27 2.647 21.144 7.107 2.454-10.647 9.765-19.436 19.474-23.91-4.146 13.256-9.342 26.048-15.489 38.28-5.921 11.781-17.999 19.201-31.184 19.201h-14.195l-291 2.5z" fill="#84b017"/><path d="m256 512c-95.579 0-178.925-52.38-222.896-130h257.627c77.326 0 87.393 112.053 11.312 125.871-14.936 2.712-30.324 4.129-46.043 4.129z" fill="#cc7400"/><path d="m104.207 382h355.106c8.716 0 13.95 9.742 9.076 16.968-39.717 58.887-103.278 100.363-176.838 110.583-80.439-11.176-148.922-59.728-187.344-127.551z" fill="#dd7d00"/><path d="m105 400h-90c-8.284 0-15-6.716-15-15 0-8.284 6.716-15 15-15h90c8.284 0 15 6.716 15 15 0 8.284-6.716 15-15 15z" fill="#ff9f22"/><path d="m467.69 400h-372.69c-8.284 0-15-6.716-15-15s6.716-15 15-15h390.279c-5.193 10.424-11.076 20.444-17.589 30z" fill="#ffb52d"/></g></svg>