<svg id="Capa_1" enable-background="new 0 0 512 512" height="512" viewBox="0 0 512 512" width="512" xmlns="http://www.w3.org/2000/svg"><g><path d="m3.266 215c19.622-121.895 125.305-215 252.734-215s233.112 93.105 252.734 215z" fill="#a6e0ec"/><path d="m57.768 418c-36.106-44.129-57.768-100.535-57.768-162 0-17.114 1.679-33.835 4.882-50.009h502.236c3.203 16.174 4.882 32.895 4.882 50.009 0 61.465-21.662 117.871-57.768 162z" fill="#7cd2e3"/><path d="m409.536 460.866c-8.046 6.039-19.536.309-19.536-9.751v-11.115h-30v20h-70v-40h-50v-10h-40v-90h40v-5c0-2.761 2.239-5 5-5h45v40h45c2.761 0 5-2.239 5-5v-60c0-2.761 2.239-5 5-5h10c2.761 0 5 2.239 5 5v80c0 2.761 2.239 5 5 5h30c2.761 0 5 2.239 5 5v10c0 2.761 2.239 5 5 5h20c2.761 0 5-2.239 5-5v-60c0-2.761 2.239-5 5-5h30c2.761 0 5-2.239 5-5v-50c0-2.761 2.239-5 5-5h10c2.761 0 5 2.239 5 5 0 2.761 2.239 5 5 5h16.624c-4.206 78.036-43.36 146.783-102.088 190.866zm-408.426-180.866c6.339 68.178 39.413 128.598 88.637 170.675 4.035 3.449 10.252.63 10.252-4.678v-135.997h-49.999v20h-25c-2.761 0-5-2.239-5-5v-40c0-2.761-2.239-5-5-5z" fill="#44bfd7"/><path d="m140 390h-28c-38.66 0-70-31.34-70-70v-80h168v80c0 38.66-31.34 70-70 70z" fill="#f44545"/><path d="m140 390h-28c-38.66 0-70-31.34-70-70v-80h28v80c0 38.66 31.34 70 70 70z" fill="#d63030"/><path d="m410 415v45.517c-31.819 23.997-69.416 40.741-110.333 47.773-10.289 1.769-19.667-6.248-19.667-16.688v-76.602c0-8.284 6.716-15 15-15h100c8.284 0 15 6.716 15 15z" fill="#cc7400"/><path d="m300 433.424v74.809c-7.404 1.283-14.917 2.247-22.524 2.879-4.027.334-7.476-2.871-7.476-6.912v-71.2c0-8.525 7.111-15.388 15.725-14.983 8.068.38 14.275 7.33 14.275 15.407z" fill="#533672"/><path d="m285 460c-8.284 0-15-6.716-15-15v-260c0-8.284 6.716-15 15-15 8.284 0 15 6.716 15 15v260c0 8.284-6.716 15-15 15z" fill="#644189"/><path d="m470 120v115c0 8.284-6.716 15-15 15h-303v-190h258c33.137 0 60 26.863 60 60z" fill="#fb5858"/><path d="m107 60h40c35.898 0 65 29.101 65 65v38.167c0 42.434-34.399 76.833-76.833 76.833h-93.167v-115c0-35.899 29.101-65 65-65z" fill="#c42d2d"/><path d="m70 125v115h-28v-115c0-35.899 29.101-65 65-65h28c-35.899 0-65 29.101-65 65z" fill="#af2727"/><path d="m212 200h-92v-30c0-5.523 4.477-10 10-10h82z" fill="#fff5f5"/><path d="m280 355v155.89c-7.901.734-15.907 1.11-24 1.11-63.339 0-121.304-23.002-166-61.109v-10.891l8.667-13.085v-47.666l-8.667-9.249v-15c0-8.284 6.716-15 15-15h160c8.284 0 15 6.716 15 15z" fill="#ffc14f"/><path d="m120 472.927c-10.542-6.623-20.566-13.993-30-22.036v-10.891l.935-2.266c8.981-21.752 8.643-46.237-.935-67.734v-15c0-8.284 6.716-15 15-15h30c-8.284 0-15 6.716-15 15z" fill="#ff9f22"/><path d="m210 440h-120v-70h120c5.523 0 10 4.477 10 10v50c0 5.523-4.477 10-10 10z" fill="#fff5f5"/><path d="m120 370v70h-30v-70z" fill="#def4f8"/><path d="m280 440h-70v-70h70c5.523 0 10 4.477 10 10v50c0 5.523-4.477 10-10 10z" fill="#fff04a"/><path d="m160 397.5v15c0 4.142-3.358 7.5-7.5 7.5s-7.5-3.358-7.5-7.5v-15c0-4.142 3.358-7.5 7.5-7.5s7.5 3.358 7.5 7.5zm-32.5-7.5c-4.142 0-7.5 3.358-7.5 7.5v15c0 4.142 3.358 7.5 7.5 7.5s7.5-3.358 7.5-7.5v-15c0-4.142-3.358-7.5-7.5-7.5zm55 0c-4.142 0-7.5 3.358-7.5 7.5v15c0 4.142 3.358 7.5 7.5 7.5s7.5-3.358 7.5-7.5v-15c0-4.142-3.358-7.5-7.5-7.5z" fill="#c8d2dc"/><path d="m253.233 387.757 20.37 30.112c1.753 2.592-.104 6.09-3.233 6.09h-40.74c-3.129 0-4.986-3.498-3.233-6.09l20.37-30.112c1.548-2.288 4.918-2.288 6.466 0z" fill="#dd7d00"/><path d="m460 210c0 5.523-4.477 10-10 10h-170c-5.523 0-10-4.477-10-10 0-5.523 4.477-10 10-10h170c5.523 0 10 4.477 10 10z" fill="#ff9100"/><path d="m480 200v15c0 2.761-2.239 5-5 5h-35v-20c0-11.046 8.954-20 20-20 11.046 0 20 8.954 20 20z" fill="#ffc14f"/><path d="m212 230.914h-120v-30.914c0-5.523 4.477-10 10-10h110z" fill="#ffb52d"/><path d="m220.5 230.375v9.25c0 5.73-4.645 10.375-10.375 10.375h-166.25c-5.73 0-10.375-4.645-10.375-10.375v-9.25c0-5.73 4.645-10.375 10.375-10.375h166.25c5.73 0 10.375 4.645 10.375 10.375z" fill="#fb5858"/><path d="m220.5 230.375v9.25c0 5.73-4.645 10.375-10.375 10.375h-139.75c-5.73 0-10.375-4.645-10.375-10.375v-9.25c0-5.73 4.645-10.375 10.375-10.375h139.75c5.73 0 10.375 4.645 10.375 10.375z" fill="#f76c57"/></g></svg>