<svg id="Capa_1" enable-background="new 0 0 512 512" height="512" viewBox="0 0 512 512" width="512" xmlns="http://www.w3.org/2000/svg"><g><path d="m510.5 254.5c0 19.649-.714 40.28-4.905 58.659-25.969 113.869-127.859 198.841-249.595 198.841-70.868 0-135.011-28.797-181.365-75.328-2.891-2.902-3.979-7.137-2.9-11.089 5.877-21.53 9.015-44.19 9.015-67.583 0-18.547-5.083-61.833-21.938-103.845-10.141-25.277-24.645-48.247-42.543-68.242-3.058-3.417-4.121-8.199-2.642-12.54 34.369-100.841 129.9-173.373 242.373-173.373 74.426 0 143.114 31.051 189.658 81.856 18.755 20.472 33.914 44.151 44.404 70.299 16.855 42.012 20.438 83.798 20.438 102.345z" fill="#84b017"/><path d="m472.416 256c0 111.009-89.991 201-201 201s-201-89.991-201-201 89.991-201 201-201c81.983 0 155.098 47.986 183.775 119.466 13.234 32.985 17.225 66.972 17.225 81.534z" fill="#9bcf1b"/><path d="m507 308.087c-5.751 27.753-15.183 45.564-28.032 52.938-4.358 2.501-8.652 3.549-13.083 3.549-8.823 0-18.186-4.153-29.67-9.247-11.363-5.04-25.504-11.313-44.485-16.183-13.456-3.453-27.297-5.837-41.141-7.087-4.125-.373-7.167-4.019-6.795-8.144.372-4.126 4.03-7.166 8.145-6.795 14.644 1.322 29.285 3.845 43.52 7.498 20.192 5.181 34.967 11.735 46.839 17.001 15.784 7.002 23.025 9.949 29.205 6.4 8.588-4.928 16.173-20.59 20.811-42.972 10.938-52.785.101-101.16-6.823-123.216-6.151-19.588-43.029-114.983-94.821-118.224-15.141-.943-35.821 5.955-42.769 18.761-2.566 4.729-2.068 8.95-1.379 14.791.705 5.967 1.581 13.393-1.765 21.627-11.164 27.48-39.484 46.52-73.907 49.688-4.113.379-7.776-2.656-8.156-6.781-.379-4.125 2.656-7.776 6.781-8.156 28.818-2.653 52.34-18.132 61.386-40.397 1.894-4.662 1.371-9.092.765-14.223-.777-6.589-1.745-14.789 3.09-23.702 10.271-18.933 36.97-27.825 56.892-26.579 60.035 3.757 98.83 98.877 108.194 128.701 7.302 23.262 18.927 74.149 7.198 130.752z" fill="#a6e0ec"/><path d="m356.802 222.868c9.808 36.604 13.029 72.981 10.476 107.164-.368 4.929-2.557 9.561-6.159 12.945-37.299 35.04-90.666 64.531-153.262 81.304-46.529 12.467-92.154 16.299-132.973 12.641-46.27-46.319-74.884-110.279-74.884-180.922 0-29.091 4.853-57.049 13.792-83.108 9.519-6.272 19.613-12.221 30.226-17.785 11.826-6.2 21.904-15.337 29.167-26.542.443-.683.894-1.365 1.353-2.045 21.899-32.445 64.708-43.916 99.895-26.767.737.359 1.469.724 2.194 1.095 11.892 6.073 25.188 8.947 38.53 8.403 30.459-1.241 59.255 1.348 85.069 7.381 4.903 1.146 9.231 4.032 12.066 8.192 19.302 28.326 34.702 61.44 44.51 98.044z" fill="#dce6eb"/><path d="m368.076 312.372c-10.999 4.058-22.375 7.681-34.086 10.818-136.567 36.593-266.802-6.612-290.888-96.501-6.442-24.041-4.638-48.986 4.073-73.332 10.465-6.117 19.403-14.598 26.01-24.793.443-.683.894-1.365 1.353-2.045 21.899-32.445 64.708-43.916 99.895-26.767.737.359 1.469.724 2.194 1.094 11.892 6.073 25.188 8.947 38.53 8.403 30.458-1.241 59.255 1.349 85.069 7.381 4.903 1.146 9.231 4.032 12.066 8.192 19.302 28.327 34.702 61.441 44.51 98.045 8.136 30.366 11.739 60.575 11.274 89.505z" fill="#fff5f5"/><path d="m227.296 154.527c-.526.141-1.076.227-1.643.25-14.662.597-29.271-2.59-42.247-9.217-.685-.349-1.374-.693-2.069-1.033-31.762-15.48-70.625-5.067-90.392 24.222-.432.64-.856 1.282-1.274 1.927-7.926 12.228-18.983 22.293-31.979 29.107-3.667 1.925-8.2.509-10.125-3.16-1.923-3.668-.508-8.202 3.16-10.125 10.717-5.619 19.83-13.911 26.356-23.979.467-.722.943-1.442 1.428-2.16 23.927-35.449 70.957-48.049 109.399-29.315.781.381 1.553.766 2.319 1.158 10.685 5.456 22.723 8.08 34.813 7.588 4.138-.169 7.63 3.05 7.799 7.188.146 3.571-2.231 6.661-5.545 7.549z" fill="#a2abb8"/><path d="m338.726 309.925c-36.361 22.867-85.397 43.234-138.076 57.349s-105.329 20.995-148.251 19.372c-4.139-.157-7.368-3.639-7.211-7.778s3.636-7.367 7.779-7.212c41.463 1.568 92.533-5.134 143.802-18.871s98.847-33.468 133.972-55.558c3.511-2.207 8.137-1.15 10.342 2.356 2.204 3.507 1.149 8.137-2.357 10.342zm-16.434-57.052c3.799-1.65 5.541-6.068 3.891-9.867-1.651-3.8-6.086-5.539-9.867-3.891-37.084 16.107-85.939 32.596-137.565 46.429s-102.18 23.981-142.349 28.574c-4.117.47-7.07 4.188-6.599 8.303s4.188 7.07 8.303 6.599c40.882-4.674 92.208-14.969 144.528-28.988 52.319-14.018 101.916-30.766 139.658-47.159zm-16.563-48.986c.771.029 1.52-.06 2.227-.249 3.094-.829 5.424-3.594 5.551-6.963.157-4.139-3.072-7.621-7.211-7.778-42.923-1.623-95.573 5.257-148.251 19.372s-101.715 34.483-138.075 57.35c-3.506 2.205-4.561 6.835-2.356 10.342 2.205 3.506 6.833 4.562 10.342 2.356 35.124-22.09 82.703-41.82 133.972-55.558 51.268-13.738 102.338-20.44 143.801-18.872z" fill="#c8d2dc"/></g></svg>