<svg id="Capa_1" enable-background="new 0 0 512 512" height="512" viewBox="0 0 512 512" width="512" xmlns="http://www.w3.org/2000/svg"><g><path d="m512 256c0 141.385-114.615 256-256 256-71.017 0-135.279-28.917-181.655-75.619v-98.4c0-41.838-32.948-75.98-74.313-77.895-.021-1.36-.032-2.722-.032-4.086 0-141.385 114.615-256 256-256s256 114.615 256 256z" fill="#44bfd7"/><path d="m447.015 256c0 105.495-85.521 191.015-191.015 191.015s-191.015-85.52-191.015-191.015 85.52-191.015 191.015-191.015 191.015 85.52 191.015 191.015z" fill="#7cd2e3"/><path d="m240 280v122h-160v-122h85c11.046 0 20-8.954 20-20v-130c0-5.523 4.477-10 10-10h10c16.569 0 30 13.431 30 30v130z" fill="#ffbeaa"/><path d="m240 420h-160v-30h160z" fill="#faa68e"/><path d="m130 397.167v27.833c0 8.284-6.716 15-15 15h-36.989c-12.756-12.342-24.233-25.999-34.212-40.752-2.661-3.934.185-9.248 4.934-9.248h74.099c3.959 0 7.168 3.209 7.168 7.167z" fill="#f44545"/><path d="m130 275v125h-85.69c-27.263-40.001-43.485-88.13-44.279-140h114.969c8.284 0 15 6.716 15 15z" fill="#fb5858"/><path d="m290 125v20c0 8.284-6.716 15-15 15h-40c-8.284 0-15-6.716-15-15v-20c0-8.284 6.716-15 15-15h40c8.284 0 15 6.716 15 15zm-55-25h40c8.284 0 15-6.716 15-15s-6.716-15-15-15h-40c-8.284 0-15 6.716-15 15s6.716 15 15 15z" fill="#9773bd"/><path d="m435 460h-190c-8.284 0-15-6.716-15-15v-380c0-8.284 6.716-15 15-15h190c8.284 0 15 6.716 15 15v380c0 8.284-6.716 15-15 15z" fill="#754ca0"/><path d="m285 460h-40c-8.284 0-15-6.716-15-15v-380c0-8.284 6.716-15 15-15h40c-8.284 0-15 6.716-15 15v380c0 8.284 6.716 15 15 15z" fill="#644189"/><path d="m410 430h-140c-8.284 0-15-6.716-15-15v-299c0-8.284 6.716-15 15-15h140c8.284 0 15 6.716 15 15v299c0 8.284-6.716 15-15 15z" fill="#fff5f5"/><path d="m425 120h-170v-25c0-8.284 6.716-15 15-15h140c8.284 0 15 6.716 15 15z" fill="#fcc1b8"/><path d="m277.5 110c-4.142 0-7.5-3.358-7.5-7.5 0-4.142 3.358-7.5 7.5-7.5 4.142 0 7.5 3.358 7.5 7.5 0 4.142-3.358 7.5-7.5 7.5z" fill="#fa9084"/><path d="m340 110c-11.046 0-20-8.954-20-20v-25c0-8.284 6.716-15 15-15h10c8.284 0 15 6.716 15 15v25c0 11.046-8.954 20-20 20z" fill="#754ca0"/><path d="m347.5 87.5c0 4.142-3.358 7.5-7.5 7.5s-7.5-3.358-7.5-7.5 3.358-7.5 7.5-7.5 7.5 3.358 7.5 7.5z" fill="#7cd2e3"/><path d="m375 410h-70c-8.284 0-15-6.716-15-15 0-8.284 6.716-15 15-15h70c8.284 0 15 6.716 15 15 0 8.284-6.716 15-15 15z" fill="#f44545"/><path d="m375 410h-45c-8.284 0-15-6.716-15-15 0-8.284 6.716-15 15-15h45c8.284 0 15 6.716 15 15 0 8.284-6.716 15-15 15z" fill="#fb5858"/><path d="m280 230h-30c-22.091 0-40-17.909-40-40 0-22.091 17.909-40 40-40h30c22.091 0 40 17.909 40 40 0 22.091-17.909 40-40 40zm50 50h-20c-22.091 0-40 17.909-40 40 0 22.091 17.909 40 40 40h20c22.091 0 40-17.909 40-40 0-22.091-17.909-40-40-40z" fill="#fff36c"/><path d="m380 360h-40c-22.091 0-40-17.909-40-40 0-22.091 17.909-40 40-40h40c22.091 0 40 17.909 40 40 0 22.091-17.909 40-40 40zm-20-170c0-22.091-17.909-40-40-40h-40c-22.091 0-40 17.909-40 40 0 22.091 17.909 40 40 40h40c22.091 0 40-17.909 40-40z" fill="#fff68e"/><path d="m297.5 265c-4.142 0-7.5-3.358-7.5-7.5 0-4.142 3.358-7.5 7.5-7.5 4.142 0 7.5 3.358 7.5 7.5 0 4.142-3.358 7.5-7.5 7.5zm32.5-7.5c0-4.142-3.358-7.5-7.5-7.5-4.142 0-7.5 3.358-7.5 7.5 0 4.142 3.358 7.5 7.5 7.5 4.142 0 7.5-3.358 7.5-7.5zm25 0c0-4.142-3.358-7.5-7.5-7.5-4.142 0-7.5 3.358-7.5 7.5 0 4.142 3.358 7.5 7.5 7.5 4.142 0 7.5-3.358 7.5-7.5zm7.5 70h-65c-4.142 0-7.5 3.358-7.5 7.5 0 4.142 3.358 7.5 7.5 7.5h65c4.142 0 7.5-3.358 7.5-7.5 0-4.142-3.358-7.5-7.5-7.5zm-50-30h-15c-4.142 0-7.5 3.358-7.5 7.5 0 4.142 3.358 7.5 7.5 7.5h15c4.142 0 7.5-3.358 7.5-7.5 0-4.142-3.358-7.5-7.5-7.5zm70 0h-45c-4.142 0-7.5 3.358-7.5 7.5 0 4.142 3.358 7.5 7.5 7.5h45c4.142 0 7.5-3.358 7.5-7.5 0-4.142-3.358-7.5-7.5-7.5zm-80-100h-65c-4.142 0-7.5 3.358-7.5 7.5 0 4.142 3.358 7.5 7.5 7.5h65c4.142 0 7.5-3.358 7.5-7.5 0-4.142-3.358-7.5-7.5-7.5zm-50-30h-15c-4.142 0-7.5 3.358-7.5 7.5 0 4.142 3.358 7.5 7.5 7.5h15c4.142 0 7.5-3.358 7.5-7.5 0-4.142-3.358-7.5-7.5-7.5zm70 0h-45c-4.142 0-7.5 3.358-7.5 7.5 0 4.142 3.358 7.5 7.5 7.5h45c4.142 0 7.5-3.358 7.5-7.5 0-4.142-3.358-7.5-7.5-7.5z" fill="#ffcd71"/><path d="m430 168h-28c-22.091 0-40-17.909-40-40 0-22.091 17.909-40 40-40h28c22.091 0 40 17.909 40 40 0 22.091-17.909 40-40 40z" fill="#84b017"/><path d="m472 168h-42c-22.091 0-40-17.909-40-40 0-22.091 17.909-40 40-40h42c22.091 0 40 17.909 40 40 0 22.091-17.909 40-40 40z" fill="#9bcf1b"/><path d="m500 128c0 4.142-3.358 7.5-7.5 7.5h-35c-4.142 0-7.5-3.358-7.5-7.5 0-4.142 3.358-7.5 7.5-7.5h35c4.142 0 7.5 3.358 7.5 7.5z" fill="#84b017"/><path d="m465.333 128c0 4.142-3.358 7.5-7.5 7.5h-38.5c-4.142 0-7.5-3.358-7.5-7.5 0-4.142 3.358-7.5 7.5-7.5h38.5c4.142 0 7.5 3.358 7.5 7.5z" fill="#fff5f5"/><path d="m430 130c0 13.807-11.193 25-25 25s-25-11.193-25-25 11.193-25 25-25 25 11.193 25 25z" fill="#6e9213"/><path d="m416.238 131.657-15.431 10.438c-1.328.898-3.121-.053-3.121-1.657v-20.877c0-1.604 1.792-2.555 3.121-1.657l15.431 10.438c1.173.795 1.173 2.521 0 3.315z" fill="#fff5f5"/><path d="m460 270c11.046 0 20 8.954 20 20v10c0 11.046-8.954 20-20 20 11.046 0 20 8.954 20 20v10c0 11.046-8.954 20-20 20 11.046 0 20 8.954 20 20v10c0 11.046-8.954 20-20 20h-35c-13.807 0-25-11.193-25-25 0-13.807 11.193-25 25-25-13.807 0-25-11.193-25-25 0-13.807 11.193-25 25-25-13.807 0-25-11.193-25-25 0-13.807 11.193-25 25-25-13.807 0-25-11.193-25-25 0-13.807 11.193-25 25-25h35c11.046 0 20 8.954 20 20v10c0 11.046-8.954 20-20 20z" fill="#ffbeaa"/><path d="m460 320h-35c-13.807 0-25-11.193-25-25 0-13.807 11.193-25 25-25h35c11.046 0 20 8.954 20 20v10c0 11.046-8.954 20-20 20zm20 80v-10c0-11.046-8.954-20-20-20h-35c-13.807 0-25 11.193-25 25 0 13.807 11.193 25 25 25h35c11.046 0 20-8.954 20-20z" fill="#faa68e"/><path d="m410 245c0-5.523 4.477-10 10-10h10c5.523 0 10 4.477 10 10s-4.477 10-10 10h-10c-5.523 0-10-4.477-10-10zm20 40h-10c-5.523 0-10 4.477-10 10s4.477 10 10 10h10c5.523 0 10-4.477 10-10s-4.477-10-10-10zm0 50h-10c-5.523 0-10 4.477-10 10s4.477 10 10 10h10c5.523 0 10-4.477 10-10s-4.477-10-10-10zm0 50h-10c-5.523 0-10 4.477-10 10s4.477 10 10 10h10c5.523 0 10-4.477 10-10s-4.477-10-10-10z" fill="#ffdecf"/></g></svg>