<svg id="Capa_1" enable-background="new 0 0 512 512" height="512" viewBox="0 0 512 512" width="512" xmlns="http://www.w3.org/2000/svg"><g><path d="m512 256c0 141.385-114.615 256-256 256s-256-114.615-256-256 114.615-256 256-256 256 114.615 256 256z" fill="#754ca0"/><path d="m472 256c0 119.294-96.706 216-216 216s-216-96.706-216-216 96.706-216 216-216 216 96.706 216 216z" fill="#2cb3cd"/><path d="m472 256c0 37.815-9.718 73.361-26.792 104.276-30.915 17.074-66.461 26.792-104.276 26.792-119.293 0-216-96.707-216-216 0-37.815 9.718-73.361 26.792-104.276 30.915-17.074 66.461-26.792 104.276-26.792 119.293 0 216 96.706 216 216z" fill="#60c8dd"/><path d="m380.064 109.936c26.875 26.868 36.356 66.963 29.241 71.384-1.38.857-5.051 1.409-55.954-49.672-45.351-45.511-45.725-49.249-44.67-50.954 4.36-7.048 44.465 2.33 71.383 29.242z" fill="#a6e0ec"/><path d="m312 425c0 8.284-25.072 15-56 15s-56-6.716-56-15 25.072-15 56-15 56 6.716 56 15z" fill="#269ab1"/><path d="m408.27 366.304-35.355 35.355c-2.929 2.928-7.678 2.928-10.606 0-2.929-2.93-2.929-7.678 0-10.607l22.551-22.552h-146.894c-.013 0-.026 0-.039 0h-110.787l22.552 22.552c2.929 2.93 2.929 7.678 0 10.607-1.464 1.464-3.384 2.196-5.303 2.196s-3.839-.732-5.303-2.196l-35.355-35.355c-2.929-2.93-2.929-7.678 0-10.607l35.355-35.355c2.929-2.928 7.678-2.928 10.606 0 2.929 2.93 2.929 7.678 0 10.607l-22.552 22.551h146.893.039 110.788l-22.552-22.552c-2.929-2.93-2.929-7.678 0-10.607 1.464-1.464 3.384-2.196 5.303-2.196s3.839.732 5.303 2.196l35.355 35.355c2.93 2.93 2.93 7.678.001 10.608z" fill="#fff5f5"/><path d="m251.964 415.703-91.81-125.51c-34.572-47.263-29.531-112.672 11.876-154.079 46.375-46.375 121.563-46.375 167.938 0 41.407 41.407 46.448 106.816 11.876 154.079l-91.81 125.51c-1.996 2.731-6.072 2.731-8.07 0z" fill="#f44545"/><path d="m339.969 136.114c41.407 41.407 46.448 106.816 11.876 154.079l-79.469 108.64-79.469-108.64c-34.572-47.263-29.531-112.672 11.876-154.079 19.012-19.012 42.867-30.23 67.593-33.653 24.727 3.423 48.581 14.641 67.593 33.653z" fill="#fb5858"/><path d="m346.669 222.581c0 50.075-40.594 90.669-90.669 90.669s-90.669-40.594-90.669-90.669 40.594-90.669 90.669-90.669 90.669 40.594 90.669 90.669z" fill="#fff5f5"/><path d="m294.401 265.248h-76.802v-69.335h76.802z" fill="#ffc14f"/><path d="m268.067 243.914h-24.134c-2.761 0-5-2.239-5-5v-16.667c0-2.761 2.239-5 5-5h24.134c2.761 0 5 2.239 5 5v16.667c0 2.762-2.239 5-5 5z" fill="#644189"/><path d="m297.568 276.715h-83.136c-4.142 0-7.5-3.358-7.5-7.5v-1c0-4.142 3.358-7.5 7.5-7.5h83.136c4.142 0 7.5 3.358 7.5 7.5v1c0 4.142-3.358 7.5-7.5 7.5z" fill="#ff9f22"/><path d="m274 190.636v-33.136c0-4.142 3.358-7.5 7.5-7.5h1c4.142 0 7.5 3.358 7.5 7.5v33.136c0 4.142-3.358 7.5-7.5 7.5h-1c-4.143 0-7.5-3.358-7.5-7.5z" fill="#ffd993"/><path d="m200.108 200.84 53.818-45.828c1.196-1.018 2.954-1.018 4.149 0l53.818 45.828c2.266 1.93.901 5.636-2.075 5.636h-107.636c-2.976.001-4.34-3.706-2.074-5.636z" fill="#e5554e"/></g></svg>