<svg id="Capa_1" enable-background="new 0 0 512 512" height="512" viewBox="0 0 512 512" width="512" xmlns="http://www.w3.org/2000/svg"><g><path d="m62.74 412.339c-4.479 1.56-9.476.067-12.306-3.739-31.685-42.613-50.434-95.417-50.434-152.6 0-139.801 112.063-253.429 251.261-255.956 142.738-2.591 259.427 110.815 260.728 253.57.482 52.888-15.076 102.115-42.103 143.111-3.01 4.566-8.614 6.663-13.88 5.185-54.68-15.341-115.678-23.91-180.006-23.91-77.701 0-150.542 12.501-213.26 34.339z" fill="#754ca0"/><path d="m373.474 105.7-31.222 136.474-165.719-37.912 20.087-87.803c-21.65-8.73-34.367-32.129-28.995-55.611 5.956-26.032 31.886-42.307 57.918-36.352 25.318 5.792 41.406 30.48 36.791 55.778z" fill="#9bcf1b"/><path d="m305.778 177.408-24.532 107.23c-1.847 8.076-9.892 13.125-17.967 11.277-8.076-1.848-13.125-9.892-11.277-17.967l24.532-107.23c1.847-8.076 9.892-13.124 17.967-11.277 8.075 1.847 13.124 9.892 11.277 17.967zm-60.018-29.118c-8.076-1.848-16.12 3.201-17.967 11.277l-24.532 107.23c-1.847 8.076 3.201 16.12 11.277 17.967s16.12-3.201 17.967-11.277l24.531-107.23c1.848-8.075-3.201-16.119-11.276-17.967z" fill="#84b017"/><path d="m405.961 78.205c-7.108 31.072-35.74 51.63-66.564 49.543-8.925 10.989-23.616 16.595-38.348 13.225-16.273-3.723-27.739-17.287-29.555-32.976-6.125 1.005-12.543.863-18.967-.607-26.548-6.073-43.145-32.518-37.072-59.066s32.518-43.145 59.066-37.072c8.037 1.839 15.162 5.544 21.022 10.555 14.993-17.082 38.641-25.607 62.353-20.182 34.42 7.874 55.94 42.16 48.065 76.58z" fill="#b9e746"/><path d="m410.725 126.721c-4.724 20.648-25.292 33.557-45.94 28.834-10.481-2.398-18.968-8.878-24.167-17.378-6.406 5.602-15.314 8.16-24.244 6.117-14.8-3.386-24.052-18.128-20.667-32.928 3.386-14.8 18.128-24.052 32.928-20.667 4.852 1.11 9.107 3.44 12.517 6.593 8.514-13.125 24.602-20.203 40.739-16.511 20.648 4.724 33.557 25.292 28.834 45.94z" fill="#caed73"/><path d="m227.346 230c0 88.365-35.223 160-78.673 160s-78.673-71.634-78.673-160 35.223-160 78.673-160 78.673 71.635 78.673 160z" fill="#ffb655"/><path d="m227.346 230c0 88.213-35.102 159.752-78.448 159.998-21.789-33.786-36.225-92.82-36.225-159.998s14.436-126.213 36.225-159.998c43.346.247 78.448 71.786 78.448 159.998z" fill="#ffcd71"/><path d="m102.673 155c0-8.284 20.147-15 45-15s45 6.716 45 15-20.147 15-45 15-45-6.715-45-15zm45-38.333c19.33 0 35-5.223 35-11.667 0-6.443-15.67-11.667-35-11.667s-35 5.223-35 11.667 15.67 11.667 35 11.667zm0 73.333c-31.852 0-57.673 6.716-57.673 15s25.821 15 57.673 15 57.673-6.716 57.673-15-25.821-15-57.673-15z" fill="#ff9f22"/><path d="m139.417 116.34c-15.346-1.237-26.744-5.845-26.744-11.34s11.398-10.103 26.744-11.34c-7.405 2.75-12.089 6.811-12.089 11.34-.001 4.53 4.683 8.59 12.089 11.34zm-22.09 38.66c0-4.619 2.255-8.944 6.185-12.657-12.529 2.663-20.839 7.336-20.839 12.657 0 5.32 8.31 9.994 20.84 12.657-3.931-3.712-6.186-8.038-6.186-12.657zm-12.673 50c0-4.201 2.39-8.159 6.613-11.634-12.978 2.751-21.267 6.941-21.267 11.634 0 4.694 8.289 8.884 21.267 11.634-4.223-3.474-6.613-7.433-6.613-11.634z" fill="#ff9100"/><path d="m410 205c0 35.898-21.826 65-48.75 65s-48.75-29.101-48.75-65 21.826-65 48.75-65 48.75 29.102 48.75 65z" fill="#dce6eb"/><path d="m410 205c0 12.052-2.46 23.339-6.748 33.015-3.84 1.296-7.861 1.985-12.002 1.985-26.924 0-48.75-29.102-48.75-65 0-12.052 2.46-23.339 6.748-33.015 3.84-1.296 7.861-1.985 12.002-1.985 26.924 0 48.75 29.102 48.75 65z" fill="#fff5f5"/><path d="m430 225v118.667c-45.67 42.339-218.944 165.347-240 159.744-56.877-15.134-105.971-49.36-140-95.397v-183.014c0-8.284 6.716-15 15-15h350c8.284 0 15 6.716 15 15z" fill="#fff68e"/><path d="m470 396.551c-45.768 69.544-124.523 115.449-214 115.449-22.821 0-44.944-2.986-66-8.589v-83.411c12.368-18.552 13.846-42.308 3.875-62.25l-3.875-7.75v-15c0-8.284 6.716-15 15-15h250c8.284 0 15 6.716 15 15z" fill="#ffc14f"/><path d="m220 509.488c-10.206-1.437-20.218-3.474-30-6.077v-83.411c7.128-5.94 11.25-14.74 11.25-24.02v-21.961c0-9.279-4.122-18.079-11.25-24.02v-15c0-8.284 6.716-15 15-15h30c-8.284 0-15 6.716-15 15z" fill="#ffb52d"/><path d="m310 420h-90c-5.523 0-10-4.477-10-10v-50c0-5.523 4.477-10 10-10h90c5.523 0 10 4.477 10 10v50c0 5.523-4.477 10-10 10z" fill="#fff5f5"/><path d="m220 420h-30v-70h30z" fill="#def4f8"/><path d="m380 420h-70v-70h70c5.523 0 10 4.477 10 10v50c0 5.523-4.477 10-10 10z" fill="#fff04a"/><path d="m260 377.5v15c0 4.142-3.358 7.5-7.5 7.5s-7.5-3.358-7.5-7.5v-15c0-4.142 3.358-7.5 7.5-7.5s7.5 3.358 7.5 7.5zm-32.5-7.5c-4.142 0-7.5 3.358-7.5 7.5v15c0 4.142 3.358 7.5 7.5 7.5s7.5-3.358 7.5-7.5v-15c0-4.142-3.358-7.5-7.5-7.5zm60 0c-4.142 0-7.5 3.358-7.5 7.5v15c0 4.142 3.358 7.5 7.5 7.5s7.5-3.358 7.5-7.5v-15c0-4.142-3.358-7.5-7.5-7.5z" fill="#c8d2dc"/><path d="m353.233 367.757 20.37 30.112c1.753 2.592-.104 6.09-3.233 6.09h-40.74c-3.129 0-4.986-3.498-3.233-6.09l20.37-30.112c1.548-2.288 4.918-2.288 6.466 0z" fill="#dd7d00"/><path d="m70 431.898c-7.135-7.542-13.816-15.518-20-23.884v-183.014c0-8.284 6.716-15 15-15h5z" fill="#ffcd71"/></g></svg>