<svg id="Capa_1" enable-background="new 0 0 512 512" height="512" viewBox="0 0 512 512" width="512" xmlns="http://www.w3.org/2000/svg"><g><path d="m511.996 257.354c-.665 128.337-95.765 234.332-219.359 252.043-6.677.957-12.637-4.285-12.637-11.03v-205.551c0-51.261-41.555-92.816-92.816-92.816-98.743 0-128.835-134.311-39.364-176.087 32.974-15.396 69.772-23.972 108.579-23.913 142.207.217 256.334 115.149 255.597 257.354z" fill="#ffc14f"/><path d="m390 145c0 8.284-6.716 15-15 15h-240c-8.284 0-15-6.716-15-15 0-8.284 6.716-15 15-15h240c8.284 0 15 6.716 15 15z" fill="#ff9100"/><path d="m339.972 355.363c0 4.188-3.395 7.583-7.583 7.583s-7.583-3.395-7.583-7.583 3.395-7.583 7.583-7.583 7.583 3.395 7.583 7.583zm-7.472-135.363c-4.143 0-7.5 3.358-7.5 7.5v97.084c0 4.142 3.357 7.5 7.5 7.5s7.5-3.358 7.5-7.5v-97.084c0-4.142-3.357-7.5-7.5-7.5z" fill="#ffe1aa"/><path d="m120 412.975c0 25.665-31.346 38.444-49.08 19.892-43.935-45.963-70.92-108.264-70.92-176.867 0-91.415 47.915-171.639 120-216.927z" fill="#754ca0"/><path d="m295 300v209.048c-12.716 1.944-25.74 2.952-39 2.952-27.084 0-53.185-4.206-77.687-12-1.82-.579.155-5.548-1.647-6.167-26.36-9.044-47.818-21.384-69.5-38-1.24-.95-9.215 1.573-10.436.601-9.48-7.543-18.414-15.745-26.73-24.537v-131.897z" fill="#f44545"/><path d="m220 134.5c0-2.6.361-5.116 1.035-7.5h-63.535c-15.188 0-27.5 12.312-27.5 27.5 0 15.188 12.312 27.5 27.5 27.5h117.5c11.046 0 20 8.954 20 20v168c0 8.284-6.716 15-15 15h-195c-8.284 0-15-6.716-15-15v-247.5c0-62.132 50.368-112.5 112.5-112.5 60.823 0 110.372 48.268 112.433 108.59 3.191 4.491 5.067 9.982 5.067 15.91 0 15.188-12.312 27.5-27.5 27.5h-25c-15.188 0-27.5-12.312-27.5-27.5z" fill="#fb5858"/><path d="m335 132h-178c-8.284 0-15-6.716-15-15v-30c0-8.284 6.716-15 15-15h178c8.284 0 15 6.716 15 15v30c0 8.284-6.716 15-15 15z" fill="#644189"/><path d="m490 87v30c0 8.284-6.716 15-15 15h-210c-8.284 0-15-6.716-15-15v-30c0-8.284 6.716-15 15-15h210c8.284 0 15 6.716 15 15z" fill="#754ca0"/><path d="m222 102c0 27.614-22.386 50-50 50s-50-22.386-50-50 22.386-50 50-50 50 22.386 50 50z" fill="#7cd2e3"/><path d="m222 102c0 5.978-1.05 11.711-2.974 17.026-5.315 1.924-11.047 2.974-17.026 2.974-27.614 0-50-22.386-50-50 0-5.978 1.05-11.711 2.974-17.026 5.315-1.924 11.047-2.974 17.026-2.974 27.614 0 50 22.386 50 50z" fill="#a6e0ec"/><path d="m182 109.324v12.676c0 5.523-4.477 10-10 10s-10-4.477-10-10v-12.676c-5.978-3.458-10-9.921-10-17.324 0-11.046 8.954-20 20-20s20 8.954 20 20c0 7.403-4.022 13.866-10 17.324z" fill="#269ab1"/><path d="m265.769 236.154v247.692c0 8.922-7.232 16.154-16.154 16.154h-71.302c-26.894-8.555-51.86-21.434-74.083-37.819v-226.027c0-8.922 7.232-16.154 16.154-16.154h129.23c8.923 0 16.155 7.232 16.155 16.154z" fill="#fff5f5"/><path d="m273.27 236.154v240.192c0 13.043-10.611 23.654-23.654 23.654h-71.302c-12.753-4.057-25.073-9.086-36.872-15h108.173c4.772 0 8.654-3.882 8.654-8.654v-240.192c0-4.771-3.882-8.654-8.654-8.654h-129.23c-4.772 0-8.654 3.882-8.654 8.654v231.352c-5.138-3.511-10.141-7.204-15-11.071v-220.281c0-13.043 10.611-23.654 23.654-23.654h129.23c13.043 0 23.655 10.611 23.655 23.654zm-33.27 187.596c0-4.142-3.358-7.5-7.5-7.5h-95c-4.142 0-7.5 3.358-7.5 7.5 0 4.142 3.358 7.5 7.5 7.5h95c4.142 0 7.5-3.358 7.5-7.5zm-20 27.5c0-4.142-3.358-7.5-7.5-7.5h-55c-4.142 0-7.5 3.358-7.5 7.5 0 4.142 3.358 7.5 7.5 7.5h55c4.142 0 7.5-3.358 7.5-7.5z" fill="#fbb3a8"/><path d="m250 314.079v20.526c0 3.779-3.063 6.842-6.842 6.842s-6.842-3.063-6.842-6.842v-5.132l-18.518 4.63c-.679 2.284-1.59 4.469-2.706 6.526l9.822 16.37 3.629-3.629c2.672-2.672 7.004-2.672 9.676 0s2.672 7.004 0 9.676l-14.514 14.514c-2.672 2.672-7.004 2.672-9.676 0s-2.672-7.004 0-9.676l3.629-3.629-16.37-9.822c-2.057 1.116-4.242 2.027-6.526 2.706l-4.63 18.518h5.132c3.779 0 6.842 3.063 6.842 6.842s-3.063 6.842-6.842 6.842h-20.526c-3.779 0-6.842-3.063-6.842-6.842s3.063-6.842 6.842-6.842h5.132l-4.629-18.518c-2.284-.679-4.469-1.59-6.526-2.706l-16.37 9.822 3.629 3.629c2.672 2.672 2.672 7.004 0 9.676s-7.004 2.672-9.676 0l-14.514-14.514c-2.672-2.672-2.672-7.004 0-9.676s7.004-2.672 9.676 0l3.629 3.629 9.822-16.37c-1.116-2.057-2.027-4.242-2.706-6.526l-18.518-4.63v5.132c0 3.779-3.063 6.842-6.842 6.842s-6.842-3.063-6.842-6.842v-20.526c0-3.779 3.063-6.842 6.842-6.842s6.842 3.063 6.842 6.842v5.132l18.518-4.63c.679-2.284 1.59-4.469 2.706-6.526l-9.822-16.37-3.629 3.629c-2.672 2.672-7.004 2.672-9.676 0-2.672-2.672-2.672-7.004 0-9.676l14.514-14.514c2.672-2.672 7.004-2.672 9.676 0s2.672 7.004 0 9.676l-3.629 3.629 16.37 9.822c2.057-1.116 4.241-2.027 6.526-2.706l4.629-18.518h-5.132c-3.779 0-6.842-3.063-6.842-6.842s3.063-6.842 6.842-6.842h20.526c3.779 0 6.842 3.063 6.842 6.842s-3.063 6.842-6.842 6.842h-5.132l4.63 18.518c2.284.679 4.469 1.59 6.526 2.706l16.37-9.822-3.629-3.629c-2.672-2.672-2.672-7.004 0-9.676s7.004-2.672 9.676 0l14.514 14.514c2.672 2.672 2.672 7.004 0 9.676-2.672 2.672-7.004 2.672-9.676 0l-3.629-3.629-9.822 16.37c1.116 2.057 2.027 4.241 2.706 6.526l18.518 4.63v-5.132c0-3.779 3.063-6.842 6.842-6.842s6.842 3.063 6.842 6.842z" fill="#f44545"/><path d="m126.842 328.447c-3.779 0-6.842-3.063-6.842-6.842v-7.526c0-3.779 3.063-6.842 6.842-6.842s6.842 3.063 6.842 6.842v7.526c0 3.779-3.063 6.842-6.842 6.842zm19.453-57.324-5.322 5.322c-2.672 2.672-2.672 7.004 0 9.676 2.672 2.672 7.004 2.672 9.676 0l5.322-5.322c2.672-2.672 2.672-7.004 0-9.676s-7.004-2.672-9.676 0zm-4.838 82.248c-2.672-2.672-7.004-2.672-9.676 0s-2.672 7.004 0 9.676l5.322 5.322c2.672 2.672 7.004 2.672 9.676 0s2.672-7.004 0-9.676zm46.28-80.345h7.526c3.779 0 6.842-3.063 6.842-6.842s-3.063-6.842-6.842-6.842h-7.526c-3.779 0-6.842 3.063-6.842 6.842s3.063 6.842 6.842 6.842zm55.421 34.211c-3.779 0-6.842 3.063-6.842 6.842v7.526c0 3.779 3.063 6.842 6.842 6.842s6.842-3.063 6.842-6.842v-7.526c0-3.779-3.063-6.842-6.842-6.842zm-47.895 68.421h-7.526c-3.779 0-6.842 3.063-6.842 6.842s3.063 6.842 6.842 6.842h7.526c3.779 0 6.842-3.063 6.842-6.842s-3.063-6.842-6.842-6.842zm33.764-89.537c2.672-2.672 2.672-7.004 0-9.676l-5.322-5.322c-2.672-2.672-7.004-2.672-9.676 0s-2.672 7.004 0 9.676l5.322 5.322c2.672 2.672 7.004 2.672 9.676 0zm-.484 67.25-5.322 5.322c-2.672 2.672-2.672 7.004 0 9.676s7.004 2.672 9.676 0l5.322-5.322c2.672-2.672 2.672-7.004 0-9.676s-7.004-2.672-9.676 0zm-43.543-63.239c-5.928 0-11.504 1.508-16.365 4.161-2.653 4.861-4.161 10.437-4.161 16.365 0 18.894 15.317 34.211 34.211 34.211 5.928 0 11.504-1.508 16.365-4.161 2.653-4.861 4.161-10.437 4.161-16.365 0-18.895-15.317-34.211-34.211-34.211z" fill="#f76c57"/><path d="m194.579 303.132c0 1.889-1.532 3.421-3.421 3.421s-3.421-1.532-3.421-3.421 1.532-3.421 3.421-3.421 3.421 1.531 3.421 3.421zm0 10.263c0 3.779 3.063 6.842 6.842 6.842s6.842-3.063 6.842-6.842-3.063-6.842-6.842-6.842-6.842 3.063-6.842 6.842zm-13.684 0c-3.779 0-6.842 3.063-6.842 6.842s3.063 6.842 6.842 6.842 6.842-3.063 6.842-6.842-3.063-6.842-6.842-6.842z" fill="#c42d2d"/></g></svg>