<svg id="Capa_1" enable-background="new 0 0 512 512" height="512" viewBox="0 0 512 512" width="512" xmlns="http://www.w3.org/2000/svg"><g><path d="m512 256.001c-.001 141.384-114.615 255.999-256 255.999-103.967 0-193.458-61.977-233.545-151v-83.326c0-17.899-7.75-34.921-21.249-46.674 12.548-129.471 121.539-230.717 254.237-230.999 141.255-.301 256.557 114.744 256.557 256z" fill="#754ca0"/><path d="m458.481 256c0 111.827-90.654 202.48-202.48 202.48s-202.481-90.653-202.481-202.48 90.653-202.48 202.48-202.48 202.481 90.653 202.481 202.48z" fill="#865cb2"/><path d="m1.206 231h105.834v130h-84.585c-14.427-32.04-22.455-67.582-22.455-105 0-8.435.408-16.774 1.206-25z" fill="#ffbeaa"/><path d="m107.04 329.894v31.106h-84.585c-4.521-10.041-8.414-20.427-11.629-31.106z" fill="#faa68e"/><path d="m512 276.593c0 11.086-8.987 20.074-20.074 20.074h-159.926v16.519h129.927c11.086 0 20.073 8.987 20.073 20.073 0 11.086-8.987 20.074-20.074 20.074h-121.666c-4.562 0-8.26 3.698-8.26 8.26 0 4.562 3.698 8.26 8.26 8.26h71.186c10.885 0 20.155 8.464 20.542 19.342.406 11.42-8.731 20.806-20.06 20.806h-200.497c-28.645 0-56.346-10.247-78.095-28.889l-36.296-31.112v-120l60-30h127.633c.8-.097 1.614-.147 2.44-.147h174.332c10.885 0 20.155 8.464 20.542 19.342.406 11.42-8.731 20.806-20.06 20.806h-129.927v16.519h159.927c11.086-.001 20.073 8.987 20.073 20.073z" fill="#c2eaf2"/><path d="m224.54 240c0 42.733-34.767 77.5-77.5 77.5-4.143 0-7.5-3.358-7.5-7.5s3.357-7.5 7.5-7.5c34.463 0 62.5-28.038 62.5-62.5 0-4.142 3.357-7.5 7.5-7.5s7.5 3.358 7.5 7.5z" fill="#7cd2e3"/><path d="m485.532 182.421c-26.143 63.116-95.579 136.963-158.332 147.473-.003-.004-.006-.008-.008-.012-62.747-10.523-132.17-84.36-158.31-147.468-.817-1.973-1.599-3.951-2.345-5.934-39.118-103.964 107.926-168.907 160.671-78.659 52.75-90.236 199.783-25.294 160.668 78.667-.746 1.983-1.527 3.961-2.344 5.933z" fill="#fb5858"/><path d="m381.923 306.798c-17.999 11.777-36.639 20.067-54.724 23.096-.003-.004-.006-.008-.008-.012-62.747-10.523-132.17-84.36-158.31-147.468-.817-1.973-1.599-3.951-2.345-5.934-14.424-38.336-3.536-71.366 18.603-93.266 1.195 9.698 3.659 19.767 7.56 30.136.962 2.556 1.969 5.105 3.022 7.647 31.229 75.393 110.395 162.668 186.202 185.801z" fill="#f44545"/><path d="m320.073 160.074c0 11.086-8.987 20.074-20.074 20.074h-82.671c-2.652 0-5.196 1.054-7.071 2.929l-88.951 88.951c-7.839 7.839-20.549 7.839-28.388 0-7.839-7.839-7.839-20.549 0-28.388l97.612-97.612c3.906-3.906 9.021-5.865 14.14-5.879.801-.097 1.616-.148 2.443-.148h92.887c11.086-.001 20.073 8.986 20.073 20.073z" fill="#c2eaf2"/><path d="m300 180.147h-16.443c-11.086 0-20.073-8.987-20.073-20.074 0-11.086 8.987-20.074 20.073-20.074h16.443c11.086 0 20.073 8.987 20.073 20.074 0 11.087-8.987 20.074-20.073 20.074zm-30 194.853c0 8.284-20.147 15-45 15s-45-6.716-45-15 20.147-15 45-15 45 6.716 45 15zm162.815 14.926c0-11.086-8.987-20.074-20.073-20.074h-16.443c-11.086 0-20.073 8.987-20.073 20.074 0 11.086 8.987 20.074 20.073 20.074h16.443c11.086 0 20.073-8.987 20.073-20.074zm49.185-56.666c0-11.086-8.987-20.074-20.073-20.074h-16.443c-11.086 0-20.073 8.987-20.073 20.074 0 11.086 8.987 20.074 20.073 20.074h16.443c11.086-.001 20.073-8.988 20.073-20.074zm30-56.667c0-11.086-8.987-20.074-20.073-20.074h-16.443c-11.086 0-20.073 8.987-20.073 20.074 0 11.086 8.987 20.074 20.073 20.074h16.443c11.086 0 20.073-8.988 20.073-20.074z" fill="#def4f8"/><path d="m78.576 375.274v-158.548c0-10.055 8.987-18.206 20.074-18.206 11.086 0 20.074 8.151 20.074 18.206v158.549c0 10.055-8.987 18.206-20.074 18.206-11.087-.001-20.074-8.152-20.074-18.207z" fill="#def4f8"/><path d="m118.723 216.726v118.549c0 10.055-8.987 18.206-20.074 18.206s-20.074-8.151-20.074-18.206v-118.549c0-10.055 8.987-18.206 20.074-18.206s20.074 8.151 20.074 18.206z" fill="#fff5f5"/><path d="m407.5 117.5c0 4.142-3.358 7.5-7.5 7.5h-5v5c0 4.142-3.358 7.5-7.5 7.5s-7.5-3.358-7.5-7.5v-5h-5c-4.142 0-7.5-3.358-7.5-7.5 0-4.142 3.358-7.5 7.5-7.5h5v-5c0-4.142 3.358-7.5 7.5-7.5s7.5 3.358 7.5 7.5v5h5c4.142 0 7.5 3.358 7.5 7.5z" fill="#c2eaf2"/><path d="m512 160.086c-.007 4.138-3.364 7.487-7.5 7.487h-.014l-42-.073c-2.836-.005-5.427-1.609-6.695-4.146l-13.286-26.571-13.296 26.64-20.005 39.937c-1.145 2.284-3.374 3.829-5.915 4.099-.264.028-.529.042-.792.042-2.261 0-4.419-1.023-5.852-2.81l-29.786-37.165-19.309.048h-.053c-4.118 0-7.47-3.323-7.499-7.448-.028-4.142 3.306-7.523 7.448-7.552l22.942-.073h.052c2.275 0 4.428 1.033 5.853 2.81l24.74 30.869 14.76-29.465 19.996-40.063c1.269-2.542 3.866-4.149 6.708-4.15h.002c2.841 0 5.438 1.604 6.708 4.146l17.93 35.862 37.374.065c4.144.005 7.496 3.369 7.489 7.511zm-169.5-87.586c0 4.142 3.358 7.5 7.5 7.5s7.5-3.358 7.5-7.5v-5h5c4.142 0 7.5-3.358 7.5-7.5 0-4.142-3.358-7.5-7.5-7.5h-5v-5c0-4.142-3.358-7.5-7.5-7.5s-7.5 3.358-7.5 7.5v5h-5c-4.142 0-7.5 3.358-7.5 7.5 0 4.142 3.358 7.5 7.5 7.5h5z" fill="#fff5f5"/></g></svg>