<svg id="Capa_1" enable-background="new 0 0 512 512" height="512" viewBox="0 0 512 512" width="512" xmlns="http://www.w3.org/2000/svg"><g><path d="m512 256c0 141.385-114.615 256-256 256s-256-114.615-256-256 114.615-256 256-256 256 114.615 256 256z" fill="#fb5858"/><path d="m472 256c0 119.294-96.706 216-216 216s-216-96.706-216-216 96.706-216 216-216 216 96.706 216 216z" fill="#fdbcbc"/><path d="m416 230.737v50.526c0 9.302-7.541 16.842-16.842 16.842-9.302 0-16.842-7.54-16.842-16.842v-12.632l-45.583 11.396c-1.671 5.623-3.913 11-6.66 16.064l24.178 40.296 8.932-8.932c6.577-6.577 17.241-6.577 23.818 0 6.577 6.577 6.577 17.241 0 23.818l-35.728 35.728c-6.577 6.577-17.241 6.577-23.818 0-6.577-6.577-6.577-17.241 0-23.818l8.932-8.932-40.296-24.178c-5.064 2.746-10.441 4.989-16.063 6.66l-11.396 45.583h12.632c9.302 0 16.842 7.54 16.842 16.842 0 9.302-7.54 16.842-16.842 16.842h-50.526c-9.302 0-16.842-7.54-16.842-16.842 0-9.302 7.54-16.842 16.842-16.842h12.632l-11.396-45.583c-5.623-1.671-11-3.913-16.063-6.66l-40.296 24.178 8.932 8.932c6.577 6.577 6.577 17.241 0 23.818-6.577 6.577-17.241 6.577-23.818 0l-35.728-35.728c-6.577-6.577-6.577-17.241 0-23.818 6.577-6.577 17.241-6.577 23.818 0l8.932 8.932 24.178-40.296c-2.747-5.064-4.989-10.441-6.66-16.064l-45.583-11.396v12.632c0 9.302-7.54 16.842-16.842 16.842s-16.842-7.54-16.842-16.842v-50.526c0-9.302 7.541-16.842 16.842-16.842 9.302 0 16.842 7.54 16.842 16.842v12.632l45.583-11.396c1.671-5.623 3.913-11 6.66-16.064l-24.178-40.296-8.932 8.932c-6.577 6.577-17.241 6.577-23.818 0-6.577-6.577-6.577-17.241 0-23.818l35.728-35.728c6.577-6.577 17.241-6.577 23.818 0s6.577 17.241 0 23.818l-8.932 8.932 40.296 24.178c5.064-2.746 10.441-4.989 16.063-6.66l11.396-45.583h-12.632c-9.302 0-16.842-7.54-16.842-16.842s7.539-16.842 16.841-16.842h50.526c9.302 0 16.842 7.54 16.842 16.842s-7.54 16.842-16.842 16.842h-12.632l11.396 45.583c5.623 1.671 11 3.913 16.063 6.66l40.296-24.178-8.932-8.932c-6.577-6.577-6.577-17.241 0-23.818s17.241-6.577 23.818 0l35.728 35.728c6.577 6.577 6.577 17.241 0 23.818-6.577 6.577-17.241 6.577-23.818 0l-8.932-8.932-24.178 40.296c2.747 5.064 4.989 10.441 6.66 16.064l45.583 11.396v-12.632c0-9.302 7.54-16.842 16.842-16.842s16.843 7.54 16.843 16.842z" fill="#f44545"/><path d="m245.895 112.842c0-9.302 7.54-16.842 16.842-16.842h18.526c9.302 0 16.842 7.54 16.842 16.842s-7.54 16.842-16.842 16.842h-18.526c-9.302 0-16.842-7.54-16.842-16.842zm35.368 269.474h-18.526c-9.302 0-16.842 7.54-16.842 16.842 0 9.302 7.54 16.842 16.842 16.842h18.526c9.302 0 16.842-7.54 16.842-16.842 0-9.302-7.54-16.842-16.842-16.842zm-151.579-133.053v-18.526c0-9.302-7.54-16.842-16.842-16.842s-16.842 7.54-16.842 16.842v18.526c0 9.302 7.541 16.842 16.842 16.842 9.302 0 16.842-7.54 16.842-16.842zm269.474-35.368c-9.302 0-16.842 7.54-16.842 16.842v18.526c0 9.302 7.54 16.842 16.842 16.842s16.842-7.54 16.842-16.842v-18.526c0-9.302-7.541-16.842-16.842-16.842zm-238.431-88.896-13.1 13.1c-6.577 6.577-6.577 17.241 0 23.818 6.577 6.577 17.241 6.577 23.818 0l13.1-13.1c6.577-6.577 6.577-17.241 0-23.818s-17.241-6.577-23.818 0zm226.274 202.456c-6.577-6.577-17.241-6.577-23.818 0l-13.1 13.1c-6.577 6.577-6.577 17.241 0 23.818 6.577 6.577 17.241 6.577 23.818 0l13.1-13.1c6.577-6.577 6.577-17.241 0-23.818zm-238.183 0c-6.577-6.577-17.241-6.577-23.818 0-6.577 6.577-6.577 17.241 0 23.818l13.1 13.1c6.577 6.577 17.241 6.577 23.818 0 6.577-6.577 6.577-17.241 0-23.818zm215.555-165.537c6.577-6.577 6.577-17.241 0-23.818l-13.1-13.1c-6.577-6.577-17.241-6.577-23.818 0s-6.577 17.241 0 23.818l13.1 13.1c6.577 6.577 17.241 6.577 23.818 0zm-108.373 9.871c-14.592 0-28.317 3.712-40.283 10.243-6.531 11.966-10.243 25.691-10.243 40.283 0 46.508 37.702 84.211 84.211 84.211 14.592 0 28.318-3.712 40.283-10.243 6.531-11.966 10.243-25.691 10.243-40.283-.001-46.508-37.703-84.211-84.211-84.211z" fill="#f76c57"/><path d="m279.579 203.789c0 4.651-3.77 8.421-8.421 8.421s-8.421-3.77-8.421-8.421 3.77-8.421 8.421-8.421 8.421 3.771 8.421 8.421zm-208-8.421c-4.651 0-8.421 3.77-8.421 8.421s3.77 8.421 8.421 8.421 8.421-3.77 8.421-8.421-3.77-8.421-8.421-8.421zm168.421-133.789c0-4.651-3.77-8.421-8.421-8.421s-8.421 3.77-8.421 8.421 3.77 8.421 8.421 8.421 8.421-3.77 8.421-8.421zm108.421 348.421c-4.651 0-8.421 3.77-8.421 8.421s3.77 8.421 8.421 8.421 8.421-3.77 8.421-8.421-3.77-8.421-8.421-8.421zm-56.842 23.158c-4.651 0-8.421 3.77-8.421 8.421s3.77 8.421 8.421 8.421 8.421-3.77 8.421-8.421-3.77-8.421-8.421-8.421zm4.842-220.947c-9.302 0-16.842 7.54-16.842 16.842s7.541 16.842 16.842 16.842c9.302 0 16.842-7.54 16.842-16.842s-7.54-16.842-16.842-16.842zm-13.263-122.211c9.301 0 16.842-7.54 16.842-16.842s-7.541-16.842-16.842-16.842c-9.302 0-16.842 7.54-16.842 16.842s7.54 16.842 16.842 16.842zm140 216.316c-9.302 0-16.842 7.54-16.842 16.842s7.54 16.842 16.842 16.842 16.842-7.54 16.842-16.842-7.541-16.842-16.842-16.842zm-326.316 3.684c-9.301 0-16.842 7.54-16.842 16.842s7.541 16.842 16.842 16.842c9.302 0 16.842-7.54 16.842-16.842s-7.54-16.842-16.842-16.842zm149.053-80.947c-9.302 0-16.842 7.54-16.842 16.842s7.54 16.842 16.842 16.842 16.842-7.54 16.842-16.842-7.541-16.842-16.842-16.842z" fill="#c42d2d"/><path d="m416.16 95.84c-42.781-42.78-99.66-66.34-160.16-66.34s-117.379 23.56-160.16 66.34-66.34 99.66-66.34 160.16 23.56 117.379 66.34 160.16 99.66 66.34 160.16 66.34 117.379-23.56 160.16-66.34 66.34-99.66 66.34-160.16-23.56-117.379-66.34-160.16zm-309.713 10.607c41.232-41.232 95.392-61.848 149.553-61.848 49.949 0 99.898 17.534 139.706 52.603l-298.504 298.504c-73.094-82.972-70.013-210.002 9.245-289.259zm299.106 299.106c-82.11 82.11-215.492 82.462-298.042 1.057l299.099-299.099c81.405 82.55 81.053 215.932-1.057 298.042z" fill="#fff5f5"/></g></svg>