<svg id="Capa_1" enable-background="new 0 0 512 512" height="512" viewBox="0 0 512 512" width="512" xmlns="http://www.w3.org/2000/svg"><g><path d="m22.007 360c-9.214-20.699-15.762-42.847-19.207-66.008-.154-1.037 3.092-9.451 2.95-10.492-.926-6.797-.869-7.419-1.25-14.375-.046-.846-4.199-.577-4.238-1.425-.174-3.878-.262-7.779-.262-11.7 0-141.385 114.615-256 256-256s256 114.615 256 256c0 13.412-1.031 26.583-3.019 39.439-.125.812-2.472 2.378-2.606 3.186-.564 3.43-2.176 5.743-2.875 9.125-.188.907 2.817 2.151 2.62 3.055-3.729 17.1-9.168 33.561-16.127 49.195z" fill="#ffc14f"/><path d="m278.222 511.048c-7.324.63-14.735.952-22.222.952s-14.898-.322-22.222-.952c-7.215-9.395-18.388-14.901-30.233-14.901h-36.431c-15.587-5.771-30.459-13.017-44.446-21.567l-1.932-7.922c-7.279-29.843-34.016-50.842-64.734-50.842-16.248-20.306-29.467-43.139-38.973-67.816h477.942c-9.506 24.677-22.725 47.51-38.972 67.815-19.441 0-37.46 10.191-47.478 26.852l-19.188 31.912c-13.987 8.55-28.859 15.796-44.446 21.567h-31.467c-13.265.001-25.965 5.377-35.198 14.902z" fill="#ffb52d"/><path d="m344.889 422.619v73.527c-21.056 7.796-43.417 12.903-66.667 14.902v-88.43c0-8.284 6.716-15 15-15h36.667c8.284.001 15 6.717 15 15.001zm96.111-72.619h-36.667c-8.284 0-15 6.716-15 15v109.58c25.505-15.592 48.07-35.522 66.667-58.765v-50.815c0-8.284-6.716-15-15-15zm-333.333-50h-36.667c-8.284 0-15 6.716-15 15v100.815c18.597 23.243 41.161 43.173 66.667 58.765v-159.58c0-8.284-6.716-15-15-15zm111.111 90h-36.667c-8.284 0-15 6.716-15 15v91.146c21.056 7.796 43.417 12.903 66.667 14.902v-106.048c0-8.284-6.716-15-15-15z" fill="#754ca0"/><path d="m122.667 87.095v219.571c0 18.41-14.924 33.333-33.333 33.333-18.41.001-33.334-14.923-33.334-33.332v-219.572c0-8.284 6.716-15 15-15h36.667c8.284 0 15 6.716 15 15zm96.111 112.905h-36.667c-8.284 0-15 6.716-15 15v211.667c0 18.41 14.924 33.333 33.333 33.333 18.409 0 33.333-14.924 33.333-33.333v-211.667c.001-8.284-6.715-15-14.999-15zm222.222 70h-36.667c-8.284 0-15 6.716-15 15v71.667c0 18.41 14.924 33.333 33.333 33.333 18.41 0 33.334-14.924 33.334-33.333v-71.667c0-8.284-6.716-15-15-15zm-111.111 27.619h-36.667c-8.284 0-15 6.716-15 15v114.047c0 18.41 14.924 33.333 33.333 33.333 18.409 0 33.333-14.924 33.333-33.333v-114.047c.001-8.284-6.715-15-14.999-15z" fill="#865cb2"/><path d="m508.98 295.439c-.8 5.175-1.755 10.298-2.86 15.365-32.386 3.888-61.891 21.695-80.729 49.281-29.417 43.074-59.828 64.915-90.391 64.915-51.239 0-86.947-60.343-121.479-118.698-32.38-54.72-65.864-111.302-108.521-111.302-33.141 0-67.492 33.29-102.199 98.995-1.284-8.631-2.138-17.402-2.538-26.292 13.932-23.781 27.976-42.799 41.933-56.757 20.535-20.534 41.665-30.946 62.804-30.946 51.211 0 86.908 60.324 121.43 118.663 32.39 54.737 65.883 111.337 108.57 111.337 25.307 0 51.551-19.64 78.004-58.374 22.193-32.498 57.508-52.992 95.976-56.187z" fill="#fb5858"/><path d="m250 317.5c0 11.046-8.954 20-20 20s-20-8.954-20-20 8.954-20 20-20 20 8.954 20 20zm-30 32.5c0-4.142-3.358-7.5-7.5-7.5h-65c-4.142 0-7.5 3.358-7.5 7.5 0 4.142 3.358 7.5 7.5 7.5h65c4.142 0 7.5-3.358 7.5-7.5zm0 30c0-4.142-3.358-7.5-7.5-7.5h-22.5c-4.142 0-7.5 3.358-7.5 7.5 0 4.142 3.358 7.5 7.5 7.5h22.5c4.142 0 7.5-3.358 7.5-7.5z" fill="#fff5f5"/><path d="m245.462 143.537v-48.537c0-52.467 42.533-95 95-95h76.538c52.467 0 95 42.533 95 95v48.537c0 52.467-42.533 95-95 95h-76.539c-52.466-.001-94.999-42.533-94.999-95z" fill="#ffe7c0"/><path d="m512 95v48.537c0 52.467-42.533 95-95 95h-44.27l-24.93 29.085c-1.103 1.288-2.714 2.028-4.41 2.028-3.859 0-6.645-3.693-5.585-7.404l7.3-25.551c-37.211-7.992-65.105-41.077-65.105-80.677v-61.018c0-52.467 42.533-95 95-95h42c52.467 0 95 42.533 95 95z" fill="#fff5f5"/><path d="m464.12 103.815v26.965c0 4.964-4.024 8.988-8.988 8.988s-8.988-4.024-8.988-8.988v-6.741l-24.327 6.082c-.892 3.001-2.088 5.87-3.554 8.573l12.903 21.505 4.767-4.767c3.51-3.51 9.201-3.51 12.711 0s3.51 9.201 0 12.711l-19.067 19.067c-3.51 3.51-9.201 3.51-12.711 0s-3.51-9.201 0-12.711l4.767-4.767-21.505-12.903c-2.703 1.466-5.572 2.663-8.573 3.554l-6.082 24.327h6.741c4.964 0 8.988 4.024 8.988 8.988s-4.024 8.988-8.988 8.988h-26.965c-4.964 0-8.988-4.024-8.988-8.988s4.024-8.988 8.988-8.988h6.741l-6.082-24.327c-3.001-.892-5.871-2.089-8.573-3.554l-21.505 12.903 4.767 4.767c3.51 3.51 3.51 9.201 0 12.711s-9.201 3.51-12.711 0l-19.067-19.067c-3.51-3.51-3.51-9.201 0-12.711s9.201-3.51 12.712 0l4.767 4.767 12.903-21.505c-1.466-2.702-2.662-5.572-3.554-8.573l-24.327-6.082v6.741c0 4.964-4.024 8.988-8.988 8.988s-8.988-4.024-8.988-8.988v-26.965c0-4.964 4.024-8.988 8.988-8.988s8.988 4.024 8.988 8.988v6.741l24.327-6.082c.892-3.001 2.089-5.87 3.554-8.573l-12.903-21.505-4.767 4.767c-3.51 3.51-9.201 3.51-12.712 0-3.51-3.51-3.51-9.201 0-12.711l19.067-19.067c3.51-3.51 9.201-3.51 12.711 0s3.51 9.201 0 12.711l-4.767 4.767 21.505 12.903c2.702-1.466 5.572-2.663 8.573-3.554l6.082-24.327h-6.741c-4.964 0-8.988-4.024-8.988-8.988s4.024-8.988 8.988-8.988h26.965c4.964 0 8.988 4.024 8.988 8.988s-4.024 8.988-8.988 8.988h-6.741l6.082 24.327c3.001.892 5.87 2.089 8.573 3.554l21.505-12.903-4.767-4.767c-3.51-3.51-3.51-9.201 0-12.711s9.201-3.51 12.711 0l19.067 19.067c3.51 3.51 3.51 9.201 0 12.711-3.51 3.51-9.201 3.51-12.711 0l-4.767-4.767-12.903 21.505c1.466 2.702 2.662 5.572 3.554 8.573l24.327 6.082v-6.741c0-4.964 4.024-8.988 8.988-8.988s8.988 4.024 8.988 8.988z" fill="#f44545"/><path d="m302.33 122.691c-4.964 0-8.988-4.024-8.988-8.988v-9.887c0-4.964 4.024-8.988 8.988-8.988s8.988 4.024 8.988 8.988v9.887c0 4.964-4.024 8.988-8.988 8.988zm25.555-75.306-6.991 6.991c-3.51 3.51-3.51 9.201 0 12.711 3.51 3.51 9.201 3.51 12.711 0l6.991-6.991c3.51-3.51 3.51-9.201 0-12.711-3.509-3.51-9.2-3.51-12.711 0zm-6.355 108.047c-3.51-3.51-9.201-3.51-12.712 0-3.51 3.51-3.51 9.201 0 12.711l6.991 6.991c3.51 3.51 9.201 3.51 12.711 0s3.51-9.201 0-12.711zm60.796-105.547h9.887c4.964 0 8.988-4.024 8.988-8.988s-4.024-8.988-8.988-8.988h-9.887c-4.964 0-8.988 4.024-8.988 8.988s4.024 8.988 8.988 8.988zm72.806 44.942c-4.964 0-8.988 4.024-8.988 8.988v9.887c0 4.964 4.024 8.988 8.988 8.988s8.988-4.024 8.988-8.988v-9.887c0-4.964-4.024-8.988-8.988-8.988zm-62.919 89.883h-9.887c-4.964 0-8.988 4.024-8.988 8.988s4.024 8.988 8.988 8.988h9.887c4.964 0 8.988-4.024 8.988-8.988.001-4.964-4.023-8.988-8.988-8.988zm44.355-117.622c3.51-3.51 3.51-9.201 0-12.711l-6.991-6.991c-3.51-3.51-9.201-3.51-12.711 0s-3.51 9.201 0 12.711l6.991 6.991c3.51 3.51 9.201 3.51 12.711 0zm-.636 88.344-6.991 6.991c-3.51 3.51-3.51 9.201 0 12.711s9.201 3.51 12.711 0l6.991-6.991c3.51-3.51 3.51-9.201 0-12.711-3.509-3.51-9.201-3.51-12.711 0zm-57.201-83.076c-7.788 0-15.113 1.981-21.498 5.467-3.486 6.386-5.467 13.711-5.467 21.498 0 24.821 20.121 44.942 44.942 44.942 7.788 0 15.112-1.981 21.499-5.467 3.485-6.386 5.466-13.711 5.466-21.498-.001-24.821-20.122-44.942-44.942-44.942z" fill="#f76c57"/><path d="m391.315 89.434c0 2.482-2.012 4.494-4.494 4.494s-4.494-2.012-4.494-4.494 2.012-4.494 4.494-4.494 4.494 2.012 4.494 4.494zm0 13.482c0 4.964 4.024 8.988 8.988 8.988s8.988-4.024 8.988-8.988-4.024-8.988-8.988-8.988-8.988 4.024-8.988 8.988zm-17.977 0c-4.964 0-8.988 4.024-8.988 8.988s4.024 8.988 8.988 8.988 8.988-4.024 8.988-8.988c0-4.963-4.024-8.988-8.988-8.988z" fill="#c42d2d"/></g></svg>