<svg id="Capa_1" enable-background="new 0 0 512 512" height="512" viewBox="0 0 512 512" width="512" xmlns="http://www.w3.org/2000/svg"><g><path d="m95.095 56.877c43.965-35.571 99.947-56.877 160.905-56.877 141.385 0 256 114.615 256 256 0 60.958-21.306 116.94-56.878 160.905-46.393-175.469-184.558-313.633-360.027-360.028z" fill="#644189"/><path d="m463.027 370.196c0 13.441-.826 26.689-2.429 39.697-24.515 32.541-56.614 59.045-93.669 76.889.456-7 .687-14.061.687-21.176 0-177.406-143.816-321.223-321.223-321.223-7.115 0-14.176.231-21.176.687 17.844-37.055 44.349-69.153 76.889-93.668 13.008-1.604 26.256-2.429 39.697-2.429 177.408 0 321.224 143.817 321.224 321.223z" fill="#754ca0"/><path d="m297.884 37.335c0 5.523-4.477 10-10 10s-10-4.477-10-10 4.477-10 10-10 10 4.477 10 10zm180 230c-5.523 0-10 4.477-10 10s4.477 10 10 10 10-4.477 10-10-4.477-10-10-10zm-240-250c-5.523 0-10 4.477-10 10s4.477 10 10 10 10-4.477 10-10-4.477-10-10-10z" fill="#533672"/><path d="m147.884 77.335c0 5.523-4.477 10-10 10s-10-4.477-10-10 4.477-10 10-10 10 4.477 10 10zm280 280c-5.523 0-10 4.477-10 10s4.477 10 10 10 10-4.477 10-10-4.477-10-10-10zm30-153.168c-5.523 0-10 4.477-10 10s4.477 10 10 10 10-4.477 10-10-4.477-10-10-10z" fill="#a88ac8"/><path d="m383.798 348.376c6.94-.214 12.716 5.279 12.994 12.217.138 3.452.208 6.921.208 10.407 0 39.299-8.855 76.529-24.679 109.805-.698 1.468-193.821 76.695-342.958-146.136-22.818-34.094 6.174-197.056 10.637-198.974 23.11-9.932 47.975-16.56 74.002-19.288 3.724-.39 7.051 2.314 7.484 6.033 14.826 127.278 123.01 226.06 254.267 226.06 2.692 0 5.374-.042 8.045-.124z" fill="#7cd2e3"/><path d="m377.481 469.218c-2.253 5.419-4.687 10.745-7.294 15.968-19.484 9.726-40.381 17.04-62.302 21.553-2.939.605-9.228-6.814-12.217-6.406-85.335 11.667-211.86-43.265-255.668-121.666-.99-1.771-9.611-1.753-10.559-3.549-4.466-8.46-8.473-17.2-11.985-26.184-1.044-2.671 7.834-5.234 6.878-7.948-9.363-26.573-12.697-119.46-9.351-135.97.465-2.297-8.917-4.712-8.39-6.986 4.562-19.707 11.4-38.543 20.222-56.215 12.046-6.013 24.633-11.104 37.668-15.182-8.766 21.136-14.823 43.809-17.69 67.643-16.863 140.152 83.454 267.9 223.608 284.751 37.205 4.473 73.505.726 107.08-9.809z" fill="#44bfd7"/><path d="m358.085 388.685c-60.305 40.601-97.28 64.859-122.994 50.997-18.138-9.777-11.127-27.985-34.498-49.497-33.456-30.795-68.478-12.5-82.496-34.498-20.029-31.433 43.827-80.786 23.999-133.493-9.353-24.862-27.206-23.57-34.498-49.498-4.919-17.488-2.394-37.981 5.019-56.14 9.32-1.028 18.79-1.556 28.383-1.556 47.162 0 91.346 12.753 129.29 35 63.946 37.491 85.144 101.943 98.043 177.749 1.19 6.994 27.124 14.084 27.735 21.259.371 4.365.633 8.762.783 13.187-11.419 8.049-24.327 16.769-38.766 26.49z" fill="#9bcf1b"/><path d="m307.884 506.739c-16.754 3.449-34.106 5.261-51.881 5.261-42.98.001-83.521-10.647-119.123-29.442-18.403-9.715-3.086-39.108 23.179-23.135 6.888 4.189 15.107 8.868 25.157 13.98 42.763 21.752 56.667 19.81 63.324 18.1 22.657-5.818 27.074-25.81 37.549-23.729 8.718 1.73 17.757 17.974 21.795 38.965z" fill="#84b017"/><path d="m396.068 349h-375.672c-1.004 0-2.003-.017-2.998-.049-11.233-28.813-17.398-60.162-17.398-92.951 0-19.938 2.28-39.344 6.592-57.971 4.49-.677 9.102-1.029 13.803-1.029h308.382c37.67 40.632 62.313 93.512 67.291 152z" fill="#ffa90b"/><path d="m120 197-50 152h-30l50-152zm20 0-50 152h30l50-152z" fill="#dd7d00"/><path d="m446 173.48-309.156 309.157c-45.779-24.119-83.362-61.701-107.48-107.48l309.156-309.157 10 10 5.48 30 34.519 9.999 15.481 40.001 29.998 5.479z" fill="#ffea06"/><path d="m512 107.48-217.26 217.26c-29.68 29.68-77.8 29.68-107.48 0-29.68-29.68-29.68-77.8 0-107.48l217.26-217.26 10 10 5.48 30 34.519 9.999 15.481 40.001 29.998 5.478z" fill="#fff36c"/><path d="m219.965 184.555 72.125 142.836-21.213 21.213-72.125-142.835zm14.142-14.142 72.125 142.835 21.213-21.213-72.125-142.835zm140.714-140.715-21.213 21.213 72.125 142.835 21.213-21.213zm-56.568 56.569 72.125 142.835 21.213-21.213-72.125-142.835z" fill="#fffac1"/><path d="m114.606 289.914 72.125 142.836 21.213-21.213-72.125-142.835zm-35.355 35.355 72.125 142.835 21.213-21.213-72.125-142.836z" fill="#fff79f"/></g></svg>