<svg id="Capa_1" enable-background="new 0 0 512 512" height="512" viewBox="0 0 512 512" width="512" xmlns="http://www.w3.org/2000/svg"><g><path d="m512 256c0 141.385-114.615 256-256 256-58.429 0-112.287-19.575-155.372-52.524-9.606-7.346-5.829-24.536-14.295-33.142-7.474-7.598-27.324-6.481-33.809-14.961-32.949-43.086-52.524-96.944-52.524-155.373 0-141.385 114.615-256 256-256s256 114.615 256 256z" fill="#9bcf1b"/><path d="m462 256c0 113.771-92.229 206-206 206s-206-92.229-206-206 92.229-206 206-206 206 92.229 206 206z" fill="#84b017"/><path d="m120.142 420.142-28.284-28.284 156.502-156.503 28.284 28.284z" fill="#c8d2dc"/><path d="m453.421 58.579c78.105 78.105 78.105 204.738 0 282.843s-204.738 78.105-282.843 0-78.105-204.738 0-282.843 204.738-78.105 282.843 0z" fill="#dce6eb"/><path d="m432.915 79.085c66.78 66.78 66.78 175.051 0 241.831s-175.051 66.78-241.831 0-66.78-175.051 0-241.831 175.052-66.78 241.831 0z" fill="#7e8b96"/><path d="m147.919 378.223c5.858 5.858 5.858 15.355 0 21.213l-48.776 48.776c-12.902-10.608-24.747-22.454-35.355-35.355l48.776-48.776c5.858-5.858 15.355-5.858 21.213 0z" fill="#fb5858"/><path d="m125.961 405.28c7.969 7.97 7.969 20.891 0 28.861l-25.334 25.334c-18.084-13.831-34.271-30.017-48.101-48.102l25.334-25.333c7.97-7.97 20.891-7.97 28.861 0z" fill="#f44545"/><path d="m205.227 306.773c-58.969-58.969-58.969-154.577 0-213.546s154.577-58.969 213.546 0 58.969 154.577 0 213.546c-10.287 10.287-21.689 18.779-33.817 25.477-45.266-24.999-100.645-24.999-145.912 0-12.128-6.698-23.53-15.19-33.817-25.477z" fill="#7cd2e3"/><path d="m205.227 306.773c-58.969-58.969-58.969-154.577 0-213.546 5.786-5.786 11.924-11.003 18.346-15.654-42.747 59.031-37.53 142.017 15.654 195.2 53.184 53.184 136.169 58.401 195.2 15.654-4.65 6.422-9.868 12.561-15.654 18.346-11.568 11.568-24.547 20.867-38.382 27.896-21.018-11.095-44.971-17.376-70.391-17.376-24.618 0-47.859 5.892-68.392 16.341-13.086-6.899-25.372-15.852-36.381-26.861z" fill="#44bfd7"/><path d="m428.13 127.192c15.519 25.835 22.215 50.313 14.956 54.673-7.259 4.361-17.901-20.943-33.42-46.778s-30.04-42.417-22.78-46.778c7.259-4.359 25.725 13.049 41.244 38.883z" fill="#a6e0ec"/><path d="m394 200v9.999l-12.333 16.915v66.172l12.333 16.913v16.833c-47.466 30.754-108.413 32.157-157.108 4.207-2.326-1.335 3.108-21.039 3.108-21.039v-100s3.431-34.499 20-34.499l18.333-5.5v-50h75.667v50h10c16.569-.001 30 13.43 30 29.999z" fill="#fff5f5"/><path d="m254.658 339.73c-8.513-3.489-16.771-7.788-24.658-12.898v-16.833l6.313-5.249v-89.5l-6.313-5.251v-9.999c0-16.569 13.431-30 30-30h10v-50h20v50c0 5.523-4.477 10-10 10-16.569 0-30 13.431-30 30v121.49c0 3.354 1.732 6.491 4.611 8.211.015.01.031.019.047.029z" fill="#def4f8"/><path d="m230 210v100h51.333c3.498 0 6.333-2.836 6.333-6.333v-87.333c0-3.498-2.836-6.333-6.333-6.333h-51.333z" fill="#f44545"/><path d="m354 150h-84v-30c0-5.523 4.477-10 10-10h64c5.523 0 10 4.477 10 10zm-74.667 60v100h114.667v-100z" fill="#fb5858"/><path d="m380 260c0 4.142-3.358 7.5-7.5 7.5h-20v20c0 4.142-3.358 7.5-7.5 7.5s-7.5-3.358-7.5-7.5v-20h-20c-4.142 0-7.5-3.358-7.5-7.5s3.358-7.5 7.5-7.5h20v-20c0-4.142 3.358-7.5 7.5-7.5s7.5 3.358 7.5 7.5v20h20c4.142 0 7.5 3.358 7.5 7.5z" fill="#fff5f5"/><path d="m310 232.5c0 4.142-3.358 7.5-7.5 7.5h-55c-4.142 0-7.5-3.358-7.5-7.5s3.358-7.5 7.5-7.5h55c4.142 0 7.5 3.358 7.5 7.5zm-27.5 22.5h-35c-4.142 0-7.5 3.358-7.5 7.5s3.358 7.5 7.5 7.5h35c4.142 0 7.5-3.358 7.5-7.5s-3.358-7.5-7.5-7.5zm-30 30h-5c-4.142 0-7.5 3.358-7.5 7.5s3.358 7.5 7.5 7.5h5c4.142 0 7.5-3.358 7.5-7.5s-3.358-7.5-7.5-7.5z" fill="#fbb3a8"/><path d="m260 100h104c5.523 0 10 4.477 10 10 0 5.523-4.477 10-10 10h-104c-5.523 0-10-4.477-10-10 0-5.523 4.477-10 10-10z" fill="#f44545"/><path d="m181.585 165c0-4.142 3.358-7.5 7.5-7.5h5v-5c0-4.142 3.358-7.5 7.5-7.5s7.5 3.358 7.5 7.5v5h5c4.142 0 7.5 3.358 7.5 7.5 0 4.142-3.358 7.5-7.5 7.5h-5v5c0 4.142-3.358 7.5-7.5 7.5s-7.5-3.358-7.5-7.5v-5h-5c-4.143 0-7.5-3.358-7.5-7.5z" fill="#def4f8"/><path d="m121 90c0-4.142 3.358-7.5 7.5-7.5h5v-5c0-4.142 3.358-7.5 7.5-7.5s7.5 3.358 7.5 7.5v5h5c4.142 0 7.5 3.358 7.5 7.5 0 4.142-3.358 7.5-7.5 7.5h-5v5c0 4.142-3.358 7.5-7.5 7.5s-7.5-3.358-7.5-7.5v-5h-5c-4.142 0-7.5-3.358-7.5-7.5z" fill="#fff5f5"/></g></svg>